<?xml version="1.0" encoding="UTF-8"?>
<svg viewBox="0 0 640 480" xmlns="http://www.w3.org/2000/svg">
 <g transform="rotate(90.079 321.07 240.65)" fill="#003f7f">
  <path d="m405.51 251.89c-3.823-1.5324-4.1659-6.4408-0.69403-9.9359 2.3524-2.3681 2.3334-2.4006-0.60281-1.0265-7.2058 3.3721-8.5019-0.91101-1.4792-4.8883 3.1581-1.7886 3.5744-2.3154 1.388-1.7562-4.597 1.1756-4.0674-2.5635 0.67728-4.7818 3.2953-1.5407 4.31-1.5417 7.6342-0.007751 4.7607 2.1968 5.3044 5.9249 0.71082 4.8731-1.8828-0.43108-1.3314 0.11697 1.388 1.3798 2.5751 1.1958 4.511 3.0616 4.511 4.3474 0 2.6004-1.7074 2.838-5.9904 0.83365-2.9362-1.3741-2.9552-1.3416-0.60278 1.0265 5.5869 5.6242 0.49377 12.916-6.9401 9.9359zm-31.231-16.222c-5.7843-3.9182-0.87946-11.765 6.2986-10.077l3.0706 0.7223-3.123-2.0433c-1.7177-1.1239-3.1231-2.4731-3.1231-2.9984 0-2.1312 4.5401-2.2994 8.054-0.29849 3.5409 2.0163 3.6416 2.0163 1.853 7.02e-4 -2.8004-3.1559 1.3264-4.1927 5.9433-1.4932 2.6451 1.5465 3.5823 3.1567 3.5823 6.1546 0 4.7849-3.6602 6.9482-4.5826 2.7084-0.34854-1.6013-0.66916-0.80972-0.78052 1.9264-0.10397 2.5546-0.45035 4.6447-0.76959 4.6447-0.31921 0-1.5685 0.33833-2.7761 0.75185-1.7128 0.58652-2.2412-0.16231-2.4035-3.4062-0.17438-3.4856-0.29855-3.6344-0.768-0.92061-0.3371 1.9491-1.9375 3.7976-4.0214 4.6448-4.1144 1.6728-3.4699 1.7044-6.454-0.31682zm61.843 0.2423c-1.6765-0.72273-3.3006-2.7752-3.6092-4.5609-0.47232-2.7334-0.59387-2.5893-0.76901 0.91124-0.16217 3.2438-0.69061 3.9927-2.4035 3.4062-1.2076-0.41351-2.4568-0.75185-2.7761-0.75185-0.31928 0-0.65292-1.8114-0.74149-4.0254-0.088562-2.214-0.44-3.081-0.78098-1.9266-1.0675 3.6141-4.6102 1.0571-4.6102-3.3276 0-2.9979 0.93722-4.6081 3.5822-6.1546 4.617-2.6995 8.7438-1.6627 5.9434 1.4932-1.7886 2.0156-1.6878 2.0156 1.853-7.02e-4 3.5139-2.001 8.054-1.8327 8.054 0.29849 0 0.52527-1.4054 1.8745-3.1231 2.9984l-3.1231 2.0433 3.0707-0.7223c7.178-1.6884 12.083 6.1586 6.2986 10.077-2.8614 1.9383-2.9264 1.9406-6.8653 0.24231zm-36.974-8.0141c-1.7242-1.5386-0.93744-6.3367 1.1567-7.0538 1.2938-0.44301 2.0821 0.007355 2.0821 1.1896 0 1.3388 0.82245 1.6695 2.7761 1.1162 4.1737-1.182 3.5165 2.3979-0.75934 4.1363-4.146 1.6857-4.0628 1.676-5.2555 0.61166zm13.302-0.6908c-3.984-1.7083-4.2802-5.1711-0.34695-4.0572 1.9536 0.5533 2.7762 0.22261 2.7762-1.1162 0-1.2117 0.78323-1.6343 2.1571-1.1639 1.3495 0.46211 1.9992 1.9189 1.7351 3.8911-0.49457 3.6935-2.0283 4.287-6.3214 2.4462zm-8.6752-7.8353c0-0.91989-0.97638-2.1601-2.1698-2.756-1.9676-0.98262-1.9676-1.2332 0-2.6904 1.1934-0.8838 2.1698-2.3189 2.1698-3.1893 0-0.97467 1.8174-1.5823 4.7325-1.5823 3.531 0 4.913 0.61551 5.4431 2.4246 0.60989 2.0812 1.0998 2.2076 3.4595 0.89268 2.27-1.265 3.4043-1.1488 6.5101 0.66711l3.7612 2.1991-3.972 2.1916c-4.6398 2.5601-6.5204 2.0709-5.294-1.3769 0.84479-2.3751 0.77927-2.3829-2.0257-0.23979-1.5942 1.218-2.8986 2.8711-2.8986 3.6734 0 0.84143-2.0559 1.4588-4.8582 1.4588-3.1536 0-4.8581-0.58682-4.8581-1.6725zm-10.218-1.843l-3.972-2.1916 3.6143-2.1132c2.0509-1.199 4.6529-1.7575 6.0153-1.2911 1.7935 0.61423 1.9599 1.0654 0.65772 1.7835-0.9588 0.52878-1.3672 1.8358-0.90753 2.9046 1.2737 2.962-0.99466 3.3427-5.4077 0.90779zm-6.8889-5.722c-0.50226-0.44824-0.13791-1.6927 0.80978-2.7655 1.4251-1.6133 1.0756-1.5819-2.0214 0.18167-3.5139 2.0009-8.054 1.8327-8.054-0.29851 0-0.52521 1.4054-1.8745 3.1231-2.9983l3.123-2.0433-3.0706 0.7223c-4.6316 1.0894-8.7277-1.4232-8.7277-5.3536 0-7.2736 11.653-7.6305 12.904-0.39526 0.46945 2.7139 0.59363 2.565 0.768-0.92059 0.16223-3.2438 0.6907-3.9927 2.4035-3.4062 1.2076 0.41353 2.4569 0.75185 2.7761 0.75185 0.31924 0 0.66562 2.0901 0.76959 4.6448 0.11136 2.7361 0.43198 3.5277 0.78052 1.9264 0.92242-4.2398 4.5826-2.0765 4.5826 2.7085 0 2.9486-0.93665 4.6078-3.4212 6.0604-3.7075 2.1677-5.3261 2.4522-6.7457 1.1854zm36.887-1.2589c-2.1583-1.3435-3.1231-3.1957-3.1231-5.9956 0-4.3772 3.544-6.9285 4.6102-3.3189 0.34097 1.1543 0.69241 0.28743 0.78098-1.9266 0.088562-2.214 0.42221-4.0254 0.74149-4.0254s1.5685-0.33832 2.7761-0.75185c1.7129-0.58653 2.2414 0.16235 2.4035 3.4062 0.17438 3.4856 0.29855 3.6345 0.76791 0.92059 1.2516-7.2352 12.905-6.8783 12.905 0.39526 0 3.9305-4.0961 6.443-8.7277 5.3536l-3.0707-0.7223 3.1231 2.0433c1.7177 1.1238 3.1231 2.4731 3.1231 2.9983 0 2.1312-4.5401 2.2994-8.054 0.29851-3.0971-1.7636-3.4465-1.795-2.0214-0.18167 3.2555 3.6853-1.0589 4.7279-6.2342 1.5066zm-24.406-1.2291c-1.2633-1.1273-1.128-4.4032 0.2627-6.3596 0.9155-1.2878 1.8872-1.3101 4.8369-0.11078 4.3872 1.7837 5.1767 5.4065 0.91525 4.1996-1.9701-0.55791-2.7761-0.22255-2.7761 1.1552 0 2.0056-1.6172 2.5626-3.2388 1.1156zm15.731-1.0124c0-1.481-0.76541-1.8279-2.7762-1.2584-4.2558 1.2053-3.4747-2.4148 0.90515-4.1955 4.3535-1.77 6.4752-0.43753 5.8056 3.646-0.539 3.2867-3.9346 4.8469-3.9346 1.8079zm-10.08-7.6115c-4.7348-2.2137-5.2496-5.9123-0.67728-4.8655 1.8826 0.43111 1.3313-0.11697-1.388-1.3798-2.5752-1.1959-4.5112-3.0616-4.5112-4.3474 0-2.6004 1.7074-2.838 5.9904-0.83366 2.976 1.3927 2.985 1.3717 0.49127-1.1365-3.1218-3.1399-2.5778-7.4871 1.217-9.7232 2.4165-1.424 3.297-1.3884 5.8992 0.23796 3.6808 2.3006 3.9409 6.262 0.62958 9.5952-2.3524 2.3682-2.3334 2.4006 0.60278 1.0265 4.283-2.0043 5.9904-1.7667 5.9904 0.83366 0 1.2858-1.9359 3.1515-4.511 4.3474-2.7194 1.2628-3.2708 1.8109-1.388 1.3798 4.5936-1.0517 4.0499 2.6764-0.71082 4.8732-3.3242 1.5339-4.339 1.5329-7.6342-0.007736z"/>
  <path d="m295.91 180.42c-0.39929-1.3624-1.2777-2.4772-1.9521-2.4772-0.67435 0-1.2262-0.83603-1.2262-1.8579s1.0098-1.8579 2.244-1.8579c1.5375 0 2.0222-0.75653 1.5397-2.4033-0.53003-1.8086 0.28845-2.712 3.3082-3.6513 2.2069-0.68652 4.0125-1.8346 4.0125-2.5512 0-1.8254-2.9811-1.5546-6.1037 0.5546-2.9027 1.9606-5.5972 1.2925-4.0907-1.0143 0.52548-0.80447-0.36197-0.43266-1.9719 0.82619-2.7476 2.1484-6.7643 1.8504-5.2148-0.38678 0.3898-0.56278-0.2247-1.3428-1.3654-1.7334-2.6672-0.91338-2.6316-2.5908 0.10712-5.0346 1.1997-1.0705 1.7875-1.9464 1.3061-1.9464-0.48126 0-0.47031-0.58446 0.024445-1.2987 0.6149-0.88782 1.5191-0.83984 2.858 0.15163 1.4637 1.0841 2.4379 1.0954 3.8564 0.044907 1.4436-1.0691 2.3149-0.95715 3.6401 0.46762 1.9643 2.112 7.637 2.6221 6.2075 0.55815-0.50088-0.72324-2.4796-1.8472-4.3969-2.4977-2.786-0.94524-3.1624-1.5308-1.8742-2.916 1.2781-1.3742 1.0218-1.9004-1.2371-2.5401-2.9045-0.82259-3.9801-3.1172-1.4612-3.1172 0.7634 0 1.388-1.1147 1.388-2.4772 0-2.7799 4.8458-3.5275 6.0209-0.92894 0.56006 1.2386 0.72202 1.2386 0.80966 0 0.18356-2.5936 2.8857-1.7237 2.8857 0.92894 0 1.3901 0.92535 2.4772 2.1085 2.4772 1.5554 0 1.8803 0.81151 1.2383 3.0938-0.47855 1.7015-0.45685 4.0548 0.048248 5.2293 1.4499 3.3715 3.727-0.71724 2.7383-4.917-0.60733-2.5801-0.27011-3.4062 1.3905-3.4062 1.267 0 2.1924-1.0456 2.1924-2.4772 0-2.6526 2.7021-3.5225 2.8856-0.92894 0.087708 1.2386 0.2496 1.2386 0.80972 0 1.175-2.5986 6.021-1.851 6.021 0.92894 0 1.3625 0.62457 2.4772 1.3881 2.4772 2.8728 0 1.2456 2.462-2.1264 3.2171-3.1371 0.70262-3.2676 0.94817-1.2159 2.2869 2.0374 1.3294 1.8058 1.682-2.0378 3.1026-4.3744 1.6169-5.8409 3.7794-2.5631 3.7794 0.97534 0 3.1204-0.84201 4.7671-1.8712 1.9013-1.1884 3.3111-1.4132 3.8631-0.61597 0.58524 0.84489 1.7493 0.83501 3.5612-0.030289 1.9724-0.94196 2.6919-0.88611 2.6919 0.2088 0 0.82181 0.96652 2.4473 2.1479 3.6122 1.9406 1.9134 1.931 2.3114-0.099121 4.123-1.2359 1.1028-1.7653 2.0051-1.1763 2.0051 0.58893 0 0.336 0.6557-0.5621 1.457-1.2518 1.117-2.3441 0.90022-4.6803-0.92896-1.6761-1.3122-2.6176-1.7278-2.0922-0.92331 1.5705 2.4047-1.8497 3.2696-4.492 1.1358-1.3479-1.0886-3.1825-1.9792-4.0766-1.9792-2.8902 0-1.7251 2.49 1.8444 3.9412 1.9085 0.77603 3.4701 2.4361 3.4701 3.6893 0 1.2531 0.98898 2.2784 2.1977 2.2784s1.9115 0.69675 1.5615 1.5482c-0.34988 0.85153-1.2748 1.428-2.0553 1.2809-0.78055-0.147-1.1166 0.76552-0.74667 2.0278 0.86148 2.9394-1.8621 4.4745-4.4882 2.5296-1.5332-1.1355-2.0212-1.1436-2.0212-0.033539 0 0.8049-0.62463 1.1189-1.388 0.69788-0.76346-0.42098-1.3881-1.8474-1.3881-3.1695 0-1.3651-0.94763-2.4042-2.1924-2.4042-1.6606 0-1.9979-0.82604-1.3905-3.4062 1.0383-4.4106-1.2293-8.057-2.605-4.1891-0.51672 1.4525-0.54282 3.7556-0.058258 5.1181 0.62524 1.758 0.24939 2.4772-1.2945 2.4772-1.2871 0-2.1757 1.0658-2.1757 2.6097 0 1.7856-0.64346 2.3893-2.0376 1.912-1.1206-0.38377-2.4068-0.1647-2.8579 0.48676-1.3776 1.989-3.6519 1.3236-4.4186-1.2927v-1.5e-5z"/>
  <path d="m139.7 211.91c-3.1968-1.5475-3.8171-2.6647-3.8171-6.8738 0-3.7169 0.81342-5.6145 3.1231-7.2854 4.6828-3.3878 1.8842-4.3999-3.8372-1.3877-6.3044 3.3192-6.2261 3.3314-6.2261-0.96735 0-2.9548 1.1168-4.1821 6.2462-6.8645 6.8734-3.5944 8.7021-6.8361 2.151-3.8131-5.3696 2.4777-5.6211 2.4249-5.6211-1.1816 0-2.3523 1.3419-3.6822 5.7319-5.6807 5.5213-2.5135 5.9549-2.5334 11.798-0.54204 4.9576 1.6895 6.0664 2.641 6.0664 5.2059 0 3.2078-0.92935 3.3354-7.2872 0.99971-1.336-0.49078-2.4291-0.34967-2.4291 0.31368 0 0.66325 3.1231 2.3641 6.9402 3.7797 6.1594 2.2842 6.9402 2.9945 6.9402 6.3141v3.7404l-6.2462-2.3891c-4.6913-1.7944-6.2463-1.9871-6.2463-0.77412 0 0.88831 1.4877 2.22 3.3061 2.9593 2.3982 0.97507 3.5007 2.6452 4.015 6.0822 0.6008 4.0155 0.14954 5.1621-2.9591 7.5188-4.2619 3.2309-6.4015 3.3864-11.649 0.84592zm-49.97-22.295c-3.1576-1.5287-3.8171-2.6825-3.8171-6.6784 0-3.9811 0.75154-5.308 4.274-7.5463 3.5745-2.2712 4.8347-2.4877 7.6995-1.3229 8.0023 3.2536 8.2019 0.63197 0.2601-3.4164-5.4203-2.763-5.624-3.0593-3.1941-4.6448 3.5337-2.3057 6.1754-2.119 11.087 0.78372 5.6366 3.331 9.5046 3.1817 4.4651-0.17247-3.0591-2.0361-3.5293-2.9302-2.2591-4.2959 2.2432-2.412 4.0455-2.1724 9.7705 1.299 4.054 2.4581 5.1422 4.0218 5.8179 8.3606 0.6423 4.1236 0.31046 5.6888-1.4596 6.8851-3.3781 2.283-4.5364 1.9064-4.5364-1.4751 0-1.6629-0.7076-3.4137-1.5724-3.8907-1.1401-0.62872-1.3106 1.003-0.62016 5.9343 0.88419 6.3148 0.70795 6.9443-2.4632 8.7984-3.0594 1.7887-3.5013 1.7976-4.238 0.084366-0.45238-1.052-0.8225-3.5392-0.8225-5.5271 0-2.1775-0.73223-3.6145-1.8417-3.6145-1.2374 0-1.6502 1.1642-1.258 3.5488 0.46748 2.8422-0.24488 4.0753-3.5778 6.193-4.868 3.0931-6.5572 3.1937-11.714 0.69717zm84.671-5.0079c-3.392-1.5946-3.8293-2.5142-3.9267-8.2574-0.10355-6.1067-0.19058-6.2582-1.578-2.7473-1.8555 4.6949-1.6634 4.5358-4.3599 3.6125-1.7167-0.58792-2.2808-2.3966-2.2808-7.3138 0-6.0062 0.39027-6.7984 4.8413-9.8279 4.0424-2.7514 5.3238-3.0648 7.7647-1.899l2.9234 1.3961-3.1434 2.9857c-4.6944 4.459-2.4553 4.7956 3.5539 0.53427 5.8923-4.1784 7.3976-4.4604 11.059-2.0713 2.3853 1.5564 2.2287 1.8756-2.4972 5.0922-5.5383 3.7695-5.6168 6.8222-0.092331 3.5922 3.1978-1.8697 3.8376-1.8553 8.9499 0.20187 5.0069 2.0147 5.5059 2.6398 5.5059 6.8974 0 3.8387-0.78804 5.1827-4.3753 7.4621l-4.3753 2.78-4.9776-2.3861c-2.7377-1.3123-5.1777-3.5008-5.4223-4.8633-1.0488-5.8428-2.2889-5.7572-2.9948 0.20654l-0.7574 6.3996-3.8171-1.7943zm-46.253-8.3141c-1.6145-3.7543 0.015274-11.326 2.5293-11.751 1.6804-0.28412 2.4291 0.3808 2.4291 2.1573 0 2.9231 0.5065 3.0762 4.2554 1.2858 2.3006-1.0986 2.6849-0.86537 2.6849 1.6298 0 3.7361-10.604 9.6877-11.899 6.6781zm23.35-2.0632c-3.2445-1.3003-5.8992-2.6246-5.8992-2.9427 0-0.31825-0.41501-1.5437-0.92226-2.7232-0.77388-1.7995-0.34239-2.0146 2.6816-1.3374 2.8436 0.63684 3.79 0.28394 4.486-1.6725 0.96338-2.7086 1.8333-2.9757 4.5967-1.4119 1.1865 0.67145 1.6695 3.0172 1.3881 6.7409l-0.4318 5.7111-5.8992-2.3642zm-17.004-12.311c0-2.5446-0.83134-3.8678-2.7761-4.4186-3.5648-1.0096-3.5323-2.6482 0.086868-4.3766 2.0119-0.96082 2.7384-2.3545 2.4442-4.6883-0.30928-2.4535 0.12132-3.1849 1.6482-2.7996 3.156 0.79636 7.3527 0.6078 10.048-0.45137 1.9615-0.77069 2.4291-0.34047 2.4291 2.235 0 2.2026 1.1536 3.7288 3.7283 4.9326l3.7282 1.7431-3.0342 1.6909c-2.1054 1.1733-3.0342 2.9186-3.0342 5.7015 0 3.8285-0.15759 3.9466-3.4701 2.5998-2.6061-1.0596-4.3504-1.053-7.0055 0.026566-4.7809 1.9437-4.7929 1.9382-4.7929-2.195zm-16.31-2.2453c-2.4812-1.1019-4.5112-2.4313-4.5112-2.9543 0-2.0016 9.4062-7.2983 11.617-6.5415 2.8256 0.96761 2.8708 2.2345 0.15142 4.2484-1.8651 1.3812-1.7811 1.7714 0.71722 3.3329 3.1316 1.9573 2.5279 4.12-1.1159 3.997-1.2909-0.043564-4.3772-0.98076-6.8583-2.0826zm38.573-0.2587c-1.7458-0.98547-1.6924-1.4739 0.3857-3.5229 2.3001-2.268 2.2787-2.4591-0.46027-4.1011-2.7535-1.6507-2.7668-1.7804-0.32172-3.1232 2.0528-1.1274 3.6974-0.79697 8.4188 1.6911l5.8677 3.0922-5.2377 3.5385c-5.915 3.996-5.8848 3.9876-8.6526 2.4255zm-49.1-7.6455c-2.4243-1.2578-2.3966-1.4616 0.58382-4.2926 4.6082-4.3772 2.541-4.7439-2.9837-0.52934-5.3028 4.0453-7.902 4.5214-11.581 2.1212-2.2996-1.5005-2.1134-1.8702 2.5368-5.0352 5.5246-3.7602 5.5159-6.9213-0.010178-3.6904-3.1978 1.8697-3.8376 1.8552-8.9499-0.20189-5.0069-2.0147-5.5059-2.6398-5.5059-6.8974 0-3.8129 0.79155-5.1849 4.2641-7.3914 4.1832-2.658 4.3676-2.6678 9.7163-0.51551 4.4533 1.792 5.4522 2.8268 5.4522 5.6485 0 1.9 0.62465 3.799 1.388 4.2201 0.8449 0.46594 1.3881-1.3633 1.3881-4.6749 0-6.5708 0.67839-7.3273 4.9966-5.5716 2.9045 1.1809 3.3316 2.193 3.3316 7.895 0 3.5972 0.62464 6.8848 1.388 7.3059 0.82605 0.45555 1.388-1.0193 1.388-3.6427 0-4.8142 0.28388-5.0227 4.2554-3.1261 2.0272 0.96814 2.6848 2.6114 2.6848 6.7083 0 4.826-0.5977 5.8485-5.4049 9.2459-6.1272 4.3304-5.5606 4.1766-8.9386 2.4241zm57.171-5.4253c-4.4234-2.5874-5.1242-3.6827-5.5722-8.7099-0.39743-4.4589 0.017044-6.0034 1.8453-6.8765 3.4049-1.626 3.6136-1.5087 4.6251 2.6006 1.5019 6.1018 3.2246 3.0184 1.8859-3.3758-1.1159-5.33-0.93851-6.0863 1.8706-7.9771 3.7201-2.5041 5.2631-1.9106 5.2631 2.0242 0 3.852 1.3465 6.8406 3.0821 6.8406 0.76839 0 1.1199-1.6852 0.78116-3.7448-0.52441-3.1884 0.078873-4.1279 4.06-6.3235 4.1051-2.264 5.1921-2.388 8.9035-1.0163 4.156 1.5362 6.77 5.3216 6.77 9.8042 0 1.2876-2.1146 3.3875-4.8744 4.8406-4.035 2.1244-5.4703 2.3241-8.3341 1.1598-4.1539-1.6889-6.6242-0.067001-2.9364 1.9279 1.4265 0.77164 3.8438 2.2705 5.3717 3.3307 2.7508 1.9088 2.7442 1.9475-0.67058 3.944-3.2681 1.9108-3.7091 1.8585-8.4212-0.99872-2.7349-1.6584-6.0988-3.0057-7.4752-2.9943-1.7551 0.014648-1.1049 0.81938 2.1765 2.6938 4.3616 2.4915 4.5085 2.7844 2.1638 4.3142-3.3509 2.1865-4.5622 2.0178-10.515-1.4639zm-37.728-0.3009c-1.3668-2.0618-2.4437-11.241-1.381-11.772 0.62647-0.31291 3.7936 0.48704 7.0382 1.7776 4.0703 1.619 5.8992 3.1073 5.8992 4.8004 0 1.9991-0.64328 2.3099-3.4701 1.6768-2.8796-0.64496-3.4701-0.33282-3.4701 1.8343 0 2.4776-3.2933 3.678-4.6161 1.6825zm23.063-2.7869c-0.83816-2.8601-1.0547-2.9157-4.6576-1.195-2.2912 1.0941-2.6833 0.86716-2.6742-1.5483 0.007599-2.009 1.6539-3.6679 5.6728-5.7162 3.1141-1.5871 5.8634-2.7019 6.1095-2.4772 1.0096 0.92177 1.1674 10.498 0.19598 11.9-1.5825 2.2849-3.8312 1.8186-4.6465-0.96349zm-17.059-10.904c-3.0346-1.3209-5.0246-3.1583-5.3016-4.8949-0.49288-3.089 0.60898-3.3691 6.0246-1.5318 2.6733 0.90696 3.5355 0.86206 3.1522-0.16412-0.29021-0.77692-3.3108-2.3266-6.7125-3.4437-5.4047-1.7749-6.2403-2.5418-6.6241-6.0799l-0.4392-4.0488 5.1199 1.9089c2.8159 1.0499 5.6682 1.9089 6.3384 1.9089 2.5028 0 1.0951-2.1298-2.3274-3.5213-3.1584-1.2842-3.4997-2.0598-3.1231-7.0974 0.34488-4.6123 1.1161-6.0294 4.1806-7.682 3.4686-1.8705 4.1205-1.872 8.4745-0.019257 3.8048 1.6191 4.883 2.9214 5.5767 6.7357 0.7514 4.1317 0.38255 5.069-2.9223 7.4261-5.2222 3.7246-2.9276 5.049 3.1781 1.8345 2.7482-1.4469 5.2734-2.6308 5.6114-2.6308 0.33809 0 0.61468 1.6486 0.61468 3.6636 0 3.052-1.0818 4.2294-6.4802 7.0524-6.073 3.1758-6.6369 5.8585-0.62825 2.989 3.9132-1.8688 4.3323-1.6993 4.3323 1.7524 0 2.3311-1.3249 3.6744-5.4969 5.5737-6.5145 2.9657-6.3595 2.9624-12.548 0.26868z"/>
  <path d="m489.95 170.01c-3.8524-4.1421 3.0157-10.271 7.6575-6.8331 1.1471 0.84952 1.8978 2.9857 1.6684 4.7471-0.31278 2.4014-1.3151 3.2957-4.0062 3.5748-1.9738 0.20471-4.3678-0.46524-5.3197-1.4888zm-2.0471-13.848c-1.198-2.7857-1.2301-2.7349 2.9745-4.7007 3.3736-1.5774 4.2605-1.5509 7.6342 0.22745 4.2213 2.2252 4.3588 2.5165 2.4503 5.1938-1.051 1.4744-1.8603 1.5617-3.92 0.42328-1.6034-0.88615-3.344-1.0118-4.5535-0.3286-2.7734 1.5667-3.6264 1.4151-4.5854-0.81531zm11.852-6.9648c-4.4182-2.4963-4.7624-2.5135-9.5482-0.47693-4.01 1.7063-5.1863 1.8011-6.1162 0.49274-1.9464-2.7388-1.4031-3.4192 4.9174-6.1594l6.1112-2.6494 6.4629 3.3797c5.6427 2.9509 6.2381 3.6428 4.6919 5.4524-0.97397 1.1399-1.808 2.1802-1.8531 2.3116-0.045288 0.13142-2.1449-0.92641-4.6658-2.3507zm2.209-8.4524l-6.6117-3.7049-6.9738 3.1535c-3.8356 1.7344-7.575 2.8218-8.3098 2.4166-3.0637-1.6896-0.85278-4.1911 7.0089-7.9302l8.3451-3.969 8.4006 4.5538c5.7733 3.1294 8.1557 5.1233 7.6175 6.3749-0.43085 1.0017-0.7832 2.0543-0.7832 2.3392 0 1.178-2.44 0.27031-8.6936-3.2338zm48.564 2.3466c-3.2125-1.6043-3.0544-6.8621 0.25391-8.4421 3.3961-1.6218 9.3591 2.2474 8.0731 5.2382-1.2805 2.9775-5.5166 4.6074-8.327 3.2038zm-116.74-4.1951c-2.7875-2.4874-2.8678-4.7866-0.23517-6.7363 4.4429-3.2903 11.268 1.5424 8.239 5.834-2.0849 2.9542-5.2985 3.3165-8.0039 0.90236zm84.482-1.8609c-0.53534-0.773-0.54584-4.9676-0.023315-9.3214l0.95-7.9159 7.577-3.8684c4.1674-2.1276 8.4919-3.555 9.6102-3.1721 3.9029 1.3364 1.9822 4.0877-4.8462 6.9416l-6.8793 2.8753-0.4078 7.5425c-0.31659 5.8536-0.92279 7.63-2.7075 7.9332-1.2648 0.21484-2.7377-0.24182-3.273-1.0147zm9.0428-5.5233v-6.7915l6.8084-3.0786c5.8625-2.6509 6.923-2.8118 7.6342-1.1582 1.3373 3.1097 0.9848 3.9831-1.942 4.812-4.5858 1.2988-6.9485 4.2778-6.9485 8.761 0 3.4209-0.5398 4.2466-2.7761 4.2466-2.4386 0-2.7761-0.82573-2.7761-6.7914zm9.2319 5.8554c-1.6749-2.4181 1.0945-7.9522 4.8456-9.683 3.6451-1.6821 4.0997-1.6611 4.9116 0.22667 0.54016 1.256-0.019775 2.677-1.4129 3.586-1.2692 0.82811-2.3077 2.6983-2.3077 4.156 0 1.7978-0.86676 2.6503-2.6942 2.6503-1.4818 0-2.9859-0.42116-3.3424-0.93597zm-88.35-4.49c0-1.7166-0.96234-3.6016-2.1385-4.189-1.2971-0.64775-1.7847-1.8902-1.2395-3.1581 1.1454-2.6635 3.2351-2.6096 7.3116 0.18874 4.3318 2.9734 3.8131 9.2977-0.81061 9.8836-2.5299 0.32063-3.1231-0.19705-3.1231-2.7253zm9.7163-2.0473c0-4.3934-0.58395-5.3037-4.8395-7.5442-4.1472-2.1835-4.6301-2.8971-3.3757-4.9887 1.4358-2.394 1.5747-2.3824 7.2686 0.6117 5.5983 2.9438 5.8195 3.299 6.221 9.9848 0.37741 6.2838 0.15015 6.9325-2.429 6.9325-2.3982 0-2.8453-0.78519-2.8453-4.9962zm8.7763-2.2054l0.8435-7.2016-6.8644-3.6362c-3.7754-1.9999-6.8768-4.3505-6.892-5.2234-0.055359-3.187 3.8739-2.7711 11.524 1.22l7.8262 4.0829 0.0273 8.9799c0.0271 8.888-0.010162 8.9799-3.6405 8.9799-3.6413 0-3.6617-0.052185-2.8243-7.2016zm39.524 2.5601c-5.4786-3.9024-6.5392-5.3435-6.611-8.9832-0.046997-2.3844-0.46216-5.5892-0.92246-7.122-1.1376-3.7877 0.71136-3.5048 7.4933 1.1464 5.0718 3.4783 5.8404 4.6861 6.6464 10.442 0.50122 3.5798 0.68811 7.1063 0.41522 7.8368-0.27283 0.73039-3.4324-0.76358-7.0214-3.32zm-28.291-2.2477c0.53339-3.3639 1.242-6.9522 1.5749-7.9741 0.63025-1.9356 12.802-9.3642 13.834-8.4433 0.32443 0.28944 0.071014 3.4544-0.56293 7.0334-1.1728 6.6202-1.7629 7.2802-11.712 13.1l-4.1036 2.4003 0.9698-6.1161zm29.961-18.451l-6.2462-2.9335 6.7083-2.5842c3.6896-1.4214 7.5767-2.5843 8.6381-2.5843 2.3933 0 14.496 5.1724 14.496 6.1952 0 0.96101-12.53 4.9841-15.268 4.9024-1.1451-0.034172-4.8928-1.3822-8.3282-2.9956zm-40.947-1.1251l-6.9402-2.9001 5.4712-2.0744c9.1468-3.468 10.99-3.4945 18.789-0.2705l7.5095 3.1046-6.6305 2.5362c-8.3358 3.1884-9.6918 3.1589-18.199-0.3958zm60.551-8.4078c-8.2646-4.689-8.7446-5.2167-7.9533-8.7467 0.46307-2.0662 0.84192-5.9165 0.84192-8.5562 0-3.9739 0.4776-4.7996 2.7761-4.7996 2.4622 0 2.7761 0.82573 2.7761 7.3025v7.3025l6.9728 3.9927c6.0034 3.4376 6.7334 4.2734 5.2509 6.0125-0.94702 1.1109-1.755 2.1239-1.7955 2.2511-0.040527 0.12722-4.0316-2.0142-8.869-4.7588zm-72.305 0.2658c-1.3004-2.1681-0.80896-2.784 3.9488-4.9499 8.3991-3.8236 9.8876-5.7133 9.8876-12.552 0-5.3224 0.3635-6.1046 2.8368-6.1046 2.6271 0 2.8068 0.64473 2.4291 8.7195l-0.4078 8.7195-8.6047 4.3221c-8.357 4.1978-8.6473 4.2508-10.09 1.8459zm44.389-0.3736c0.048553-8.8888 1.7013-12.09 8.5626-16.584 3.7515-2.4574 7.032-4.262 7.29-4.0102 0.25794 0.25185-0.14624 3.8106-0.89819 7.9085-1.2979 7.0722-1.7128 7.6546-8.1685 11.467-6.653 3.9286-6.8008 3.9551-6.7859 1.2196zm-13.614-3.106c-4.9322-4.0714-5.7001-5.4474-6.2209-11.147-0.70566-7.7238 0.35077-8.0271 7.893-2.2666 4.8679 3.718 5.4908 4.857 6.071 11.101 0.38818 4.1771 0.094543 6.9578-0.73483 6.9578-0.75974 0-3.9134-2.0901-7.0083-4.6447zm48.646-2.3417c-5.7724-3.1058-5.8992-3.3176-5.8992-9.8605 0-6.3066 0.1972-6.6865 3.4701-6.6865 3.1874 0 3.4702 0.45412 3.4702 5.5737 0 3.0656 0.46851 5.5861 1.0411 5.6012 2.8764 0.076134 7.3557 4.5648 6.5123 6.5261-1.1617 2.7014-1.5175 2.6536-8.5944-1.154zm-83.597-1.6301c-1.3343-2.2247-0.92566-2.7814 3.3895-4.6176 4.3608-1.8557 4.9066-2.6179 4.9066-6.8518 0-3.1828 0.72198-5.0111 2.1753-5.5088 3.8484-1.3178 5.1995 1.4053 3.8843 7.8289-1.0796 5.2731-1.8897 6.2895-7.0294 8.8195-5.806 2.858-5.8099 2.8581-7.3263 0.32981zm90.5-4.459c-4.2157-2.6348-4.4467-10.458-0.30884-10.458 1.957 0 2.776 0.82573 2.776 2.7985 0 1.5392 1.2969 3.5212 2.8816 4.4044 2.3151 1.2901 2.5546 1.9574 1.2181 3.3944-2.0934 2.2508-2.7653 2.2365-6.5668-0.13955zm-95.332-2.7166c-0.6246-1.4516 0.014069-2.7288 1.9336-3.8669 1.5765-0.93461 2.8664-2.7461 2.8664-4.0254 0-1.5004 0.98538-2.3261 2.776-2.3261 2.2434 0 2.7761 0.8257 2.7761 4.3033 0 3.5126-0.75247 4.6505-4.0952 6.193-5.1024 2.3544-5.1244 2.3535-6.2569-0.27785zm42.026-7.4984c-6.6502-3.8612-7.6675-4.924-6.4977-6.7877 1.289-2.0537 1.9183-1.9385 8.9121 1.6322l7.5251 3.8419 7.0503-3.4241c5.9211-2.8757 7.2537-3.1371 8.3206-1.6322 0.69879 0.98552 1.2726 2.0706 1.2752 2.4112 0.006287 0.81002-16.079 8.6904-17.562 8.6034-0.62662-0.036728-4.6874-2.1269-9.0241-4.6447zm62.826 2.9757c-3.8524-4.142 3.0156-10.271 7.6574-6.8331 1.1472 0.84952 1.8979 2.9857 1.6685 4.7471-0.3128 2.4013-1.3151 3.2956-4.0062 3.5748-1.9739 0.20474-4.3678-0.46526-5.3197-1.4888zm-114.49-2.359c-3.5391-2.3093-2.4493-7.5545 1.678-8.0766 6.1394-0.77664 9.2363 3.9941 5.0297 7.7479-2.6508 2.3653-3.5209 2.408-6.7076 0.32872zm54.361-8.6556c-5.6834-2.9908-5.7738-3.1272-3.862-5.8258 1.1484-1.621 1.9389-1.555 6.2629 0.52291 4.6732 2.2457 5.2152 2.2646 9.7395 0.33944 4.5235-1.9249 4.8662-1.913 6.1407 0.21188 1.1212 1.8694 0.44782 2.7029-3.9768 4.9219-6.5424 3.2812-7.7734 3.2665-14.304-0.17029zm3.4184-7.7567c-3.2828-2.0518-4.0237-4.8396-1.6361-6.1563 0.79694-0.43945 2.3185-0.155 3.3814 0.63217 1.4075 1.0424 2.6951 1.067 4.7391 0.090881 2.296-1.0965 3.0738-0.89457 4.2762 1.1101 1.2508 2.0856 0.85644 2.7334-2.6489 4.3509-5.0006 2.3075-4.372 2.3097-8.1116-0.027679zm0.4844-12.404c-2.6509-2.3654-2.6987-3.1418-0.3685-5.9855 2.5879-3.1581 8.466-2.1857 9.0511 1.4974 0.8703 5.4784-4.476 8.2419-8.6826 4.4881z"/>
  <path d="m182.33 74.209c-2.0844-3.1926-0.91985-7.2226 2.5554-8.8434 2.8926-1.349 2.8492-1.3975-0.8402-0.93877-3.304 0.41084-3.8269 0.087807-3.4701-2.1438 0.30702-1.92 1.7284-2.8338 5.2783-3.3935 2.9801-0.46978 3.6508-0.82891 1.7351-0.92895-3.8327-0.20005-4.051-2.1099-0.43825-3.8352 5.712-2.7279 12.584 0.17619 12.584 5.318 0 2.462-1.4806 2.6454-4.2127 0.52176-1.0956-0.85153-0.53686-0.062901 1.2415 1.7525 2.2857 2.3335 2.953 4.0888 2.2771 5.9893l-0.9563 2.6885-3.4613-2.8927-3.4613-2.8928 1.6533 3.2495c1.245 2.4472 1.2632 3.8998 0.073517 5.8834-1.9618 3.2711-8.5369 3.5615-10.558 0.46633zm35.022-6.2387c-1.3636-1.3445-1.9616-3.4107-1.5234-5.2641 0.69925-2.9578 0.65398-2.947-1.485 0.35537-1.2134 1.8734-2.744 3.4062-3.4014 3.4062-2.0355 0-2.9414-3.7768-1.4872-6.2013 2.0515-3.4206 1.6752-4.5352-0.59987-1.7767-1.889 2.2904-2.0291 2.2978-2.9585 0.15772-2.3431-5.3954 6.7535-12.804 11.45-9.3256 1.7081 1.2649 1.5278 1.7237-1.2098 3.0792-3.9022 1.9321-2.6779 2.1428 2.4136 0.41535 2.6493-0.89878 4.2833-0.85485 5.6425 0.1517 2.7135 2.0095 2.3696 3.5907-0.78098 3.5907-1.4817 0-3.1458 0.65209-3.6978 1.4491-0.69092 0.99761-0.22142 1.1812 1.5069 0.58946 3.0142-1.0321 7.6612 2.3018 7.6612 5.4966 0 1.2082-0.98158 3.0726-2.1813 4.1431-2.8808 2.5706-6.5787 2.4651-9.3494-0.26687zm-18.7-14.217c-1.8973-1.8021-2.5425-3.4004-1.8035-4.4674 0.88347-1.2756 1.3924-1.3123 2.1917-0.15826 0.79846 1.1529 1.3106 1.1139 2.1978-0.16706 2.0956-3.0257 4.3582 0.51737 2.7463 4.3005-1.7005 3.9912-1.6532 3.9868-5.3323 0.49219v8e-6zm-27.746-2.2962c0.61076-3.7132 0.5493-3.7678-1.5775-1.4031-5.1818 5.7615-13.765 2.9438-11.843-3.888 1.0181-3.6199 6.7284-5.697 9.3154-3.3884 2.6259 2.3431 4.3729 1.5512 1.9179-0.86943-2.8792-2.839-2.874-3.4654 0.037262-4.4623 1.4981-0.51295 3.363 0.22545 5.2052 2.0611 1.5789 1.5733 2.4022 2.3192 1.8297 1.6577-1.7699-2.0448-1.1605-3.1845 1.7031-3.1845 3.895 0 7.3198 5.145 6.1629 9.2584-1.0885 3.8701-4.4775 5.496-6.2498 2.9985-0.93265-1.3143-1.2318-1.0925-1.248 0.92556-0.018021 2.2506-2.3807 4.158-5.1505 4.158-0.40594 0-0.45207-1.7387-0.10257-3.8636zm14.066-1.7205c0.48488-1.1276 0.88162-2.8406 0.88162-3.8068 0-0.96614 0.93695-1.7566 2.082-1.7566 1.1451 0 2.0821 0.83607 2.0821 1.8579 0 1.0219 0.49748 1.8579 1.1055 1.8579 1.3903 0 1.3375-5.6655-0.064514-6.916-1.7136-1.5285-1.1824-2.9929 1.0858-2.9929 1.1697 0 2.6284-1.21 3.2415-2.689 0.73866-1.7818 1.4537-2.1997 2.1193-1.2386 0.55252 0.79771 2.5096 1.4504 4.3492 1.4504 2.3553 0 3.1156 0.53255 2.5704 1.8005-0.42584 0.99024 0.29521 3.0804 1.6024 4.6448 1.3698 1.6393 2.0474 1.9695 1.5995 0.77923-1.2052-3.2025 2.8665-3.7479 5.2558-0.70397 2.8836 3.6737 2.709 4.2265-1.6426 5.2011-2.7889 0.62461-4.2481 0.2586-5.638-1.414-1.8066-2.174-1.9486-2.1683-3.8768 0.15394-1.5532 1.8708-2.3733 2.0788-3.6619 0.92896-2.454-2.1898-3.6349-1.8168-4.1318 1.3052-0.3443 2.1633-1.4949 2.8765-5.1423 3.1875-3.8962 0.3322-4.5482 0.050423-3.8171-1.6496zm29.406-8.7397c-1.5989-2.1776-2.0416-4.3576-1.4077-6.9328 0.77434-3.1459 1.4659-3.6642 4.2548-3.1884 2.5501 0.43498 3.3301 0.028028 3.3301-1.7374 0-1.5249 0.99861-2.3055 2.9496-2.3055 2.5477 0 2.8343 0.51464 2.1029 3.7774-0.52507 2.3427-0.32738 3.491 0.52055 3.0234 0.75191-0.41469 1.3672-1.4967 1.3672-2.4045 0-2.9537 7.0778-3.5853 10.087-0.90013 5.7345 5.117-3.0097 12.729-9.1857 7.9961-2.8695-2.1989-2.8704-2.1969-0.49985 1.1598 3.0026 4.2518 2.9746 4.6883-0.30074 4.6883-1.4714 0-3.97-1.4686-5.5522-3.2635-1.5822-1.795-2.8768-2.6639-2.8768-1.931 0 0.73291 0.6348 1.6826 1.4107 2.1105 0.77588 0.42789 1.0514 1.2968 0.61211 1.931-1.4489 2.092-4.4432 1.2027-6.8119-2.0233zm-31.685-2.4043c-2.4268-2.9765-2.41-3.0382 1.038-3.8105 4.5178-1.0118 9.1675 0.37088 6.3928 1.9011-1.0441 0.57585-1.5147 1.9393-1.0457 3.0299 1.3745 3.1963-3.5734 2.328-6.3851-1.1205zm23.441-2.3803c0.54762-1.2735 0.065308-1.9479-1.3929-1.9479-4.0583 0-2.3134-3.3914 2.1552-4.1889 2.4122-0.43049 4.5777-0.61147 4.8123-0.40222 1.2487 1.1143-2.1035 7.7461-4.0879 8.0872-1.6244 0.27927-2.0721-0.18698-1.4867-1.5482zm-14.1-3.5137c-0.40749-0.94752-0.071625-3.2935 0.74631-5.2132l1.4871-3.4904 3.4543 2.8958c3.6166 3.0318 3.8408 5.4928 0.50542 5.5485-1.0794 0.017998-2.7478 0.47137-3.7074 1.0074-1.0419 0.58203-2.0434 0.28062-2.4858-0.74809zm-13.821-0.9219c-0.47582-0.687 0.58038-1.7556 2.3472-2.3748 2.6079-0.9139 2.0652-1.0867-2.8847-0.91846-7.1145 0.2418-9.0688-2.0427-3.3418-3.9063l3.8865-1.2647-3.7683-0.0977c-4.906-0.12733-7.5422-4.162-5.4265-8.3054 3.0369-5.9478 13.377-1.9861 11.842 4.5374-0.49808 2.1176-0.044891 1.7495 1.4815-1.2036 1.9972-3.8639 2.3989-4.0761 4.3758-2.312 1.7518 1.5631 1.8617 2.4676 0.56313 4.6327-0.88745 1.4797-1.3101 3.3562-0.93909 4.1699 0.37094 0.8138 0.72374 0.45776 0.784-0.79115 0.06073-1.2581 0.88341-2.0263 1.8447-1.7226 2.4758 0.78218 1.5697 7.3975-1.2667 9.2483-2.8658 1.8699-8.2942 2.0462-9.4978 0.30837zm21.411-5.6685c-3.225-3.0633-2.7833-7.9077 0.53967-5.9176 0.98125 0.58767 0.66153 0.14303-0.71042-0.98802-2.5499-2.102-3.2337-4.922-1.5565-6.4187 0.51596-0.46038 2.3898 0.37996 4.1641 1.8674 3.1055 2.6034 4.7525 1.653 1.7612-1.0163-2.4963-2.2275-0.036133-7.5646 3.8927-8.4445 5.2966-1.1862 9.2916 2.6971 7.3829 7.1768-0.77754 1.825-2.3293 3.3181-3.4482 3.3181-1.119 0-2.4147 0.54897-2.8795 1.2199-0.52403 0.75664 0.76282 0.93304 3.3882 0.46448 3.6564-0.65254 4.2331-0.39688 4.2331 1.8766 0 1.7245-0.87555 2.6321-2.5393 2.6321-1.7215 0-2.5038 0.87425-2.4291 2.7146 0.084793 2.0877-0.91676 2.9071-4.3361 3.5476-3.5837 0.67129-5.0315 0.277-7.4629-2.0324z"/>
  <path d="m449.58 10.608c0-1.295-0.62457-2.3546-1.388-2.3546-2.5593 0-1.4212-2.7014 1.4173-3.3637 2.1162-0.49384 2.4384-1.0492 1.3114-2.2609-1.1345-1.2198-0.58166-2.003 2.2973-3.2549 2.0851-0.9067 4.0454-2.3453 4.3564-3.1968 0.79187-2.1693-3.1292-1.9366-5.2184 0.30964-2.4524 2.6368-6.095 2.4296-4.9295-0.2805 0.69061-1.606 0.072815-1.4286-2.4812 0.71245-2.3215 1.9461-3.7116 2.4021-4.3802 1.4367-0.53879-0.77776-0.61432-1.74-0.16797-2.1382 0.44623-0.39827-0.27197-1.4759-1.5961-2.3948-2.2706-1.5756-2.2543-1.7764 0.28677-3.5286 1.4819-1.0218 2.1378-1.8579 1.4575-1.8579-0.68033 0-0.50217-0.65568 0.39587-1.4571 1.2518-1.117 2.3441-0.90018 4.6804 0.92896 1.676 1.3123 2.6176 1.7278 2.0921 0.92334-1.5705-2.4047 1.8498-3.2696 4.4919-1.1359 2.8211 2.2782 5.7025 2.598 5.7025 0.63305 0-0.74041-1.8727-1.9769-4.1614-2.7479-3.0688-1.0336-3.9553-1.9809-3.3765-3.6082 0.52484-1.4757 0.064148-2.2066-1.3908-2.2066-1.1966 0-2.1756-0.83608-2.1756-1.8579s0.6615-1.8579 1.4699-1.8579c0.80853 0 1.1277-0.49418 0.70932-1.0982-0.4184-0.60405 0.1694-1.787 1.3061-2.6288 1.6415-1.2156 2.4954-1.2133 4.1489 0.011301 1.5515 1.149 2.0821 1.169 2.0821 0.078569 0-0.80485 0.68344-1.0864 1.5188-0.62578 0.8353 0.46068 1.2506 2.0895 0.9227 3.6195-0.44534 2.0794-0.035675 2.6513 1.6224 2.2644 1.6456-0.38398 2.2136 0.37915 2.2003 2.9562-0.009857 1.9106 0.60669 3.4738 1.3701 3.4738 0.76349 0 1.2295-1.5328 1.0357-3.4061-0.24826-2.4002 0.29001-3.4062 1.8224-3.4062 1.4362 0 2.0271-0.90718 1.7403-2.6717-0.23886-1.4694 0.34647-2.9093 1.3008-3.1997 0.95425-0.29039 1.7351 0.14407 1.7351 0.96548 0 1.164 0.44589 1.1633 2.0213-0.003439 2.626-1.9448 5.3496-0.40975 4.4882 2.5296-0.37 1.2623-0.034027 2.1748 0.74658 2.0278 0.78052-0.14702 1.7054 0.42943 2.0554 1.281 0.34994 0.85151-0.35281 1.5482-1.5616 1.5482-1.2087 0-2.2017 0.97537-2.2064 2.1676-0.004913 1.1922-2.0348 3.2406-4.5112 4.5522-3.6782 1.9481-4.0388 2.4781-1.97 2.8954 1.3928 0.28094 3.6957-0.42872 5.1176-1.577 2.744-2.2159 6.2378-1.44 4.6264 1.0273-0.52536 0.80445 0.2944 0.48728 1.8218-0.7049 3.1794-2.4817 4.6404-2.7463 4.6404-0.84045 0 0.72987 0.94263 2.1682 2.0948 3.1963 2.3156 2.0662 1.5935 4.1468-1.4391 4.1468-1.0761 0-1.6352 0.74723-1.2425 1.6605 0.90616 2.1071-7.0659 1.987-11.467-0.17275-4.1106-2.0171-6.068-1.8709-5.0997 0.38084 0.44196 1.0277 2.3479 2.2145 4.2355 2.6372 2.4296 0.54415 3.2428 1.4142 2.7842 2.979-0.41943 1.4315 0.27371 2.4254 1.9671 2.8205 2.6985 0.62967 3.6925 3.3193 1.2268 3.3193-0.7634 0-1.388 0.85355-1.388 1.8968 0 2.5878-4.1552 3.826-5.671 1.6898-0.87689-1.2357-1.2328-1.2871-1.248-0.18044-0.011658 0.85152-0.64587 1.5482-1.4093 1.5482s-1.388-1.3759-1.388-3.0576c0-2.339-0.54108-2.8724-2.3022-2.2694-1.9222 0.6582-2.1663 0.18222-1.479-2.884 0.99158-4.4241-1.0635-8.4998-2.5468-5.0508-0.50888 1.1832-0.59091 3.2919-0.18237 4.6858 0.4523 1.5436-0.029114 2.7988-1.2317 3.2105-1.0858 0.37184-1.9743 1.6207-1.9743 2.7753 0 1.55-1.2712 2.1314-4.8581 2.2221-3.8968 0.098599-4.8582-0.34307-4.8582-2.2317z"/>
  <path d="m326.67 96.851c-2.582-4.2784-2.581-4.2874 0.742-7.4438l3.327-3.1602 2.603 3.6682c2.713 3.824 2.096 6.6406-2.143 9.7801-1.564 1.1574-2.45 0.6014-4.529-2.8443zm27.795-5.2242c-5.49-5.6743-6.73-7.7827-6.373-10.838 0.64102-5.4973 1.155-5.7812 6.416-3.5425 4.202 1.7879 4.929 2.8286 6.248 8.9374 0.82101 3.8026 1.792 8.1679 2.159 9.7007 1.053 4.4111-1.124 3.3142-8.45-4.2578zm-57.564 2.4047c0-0.5888 1.447-4.8981 3.216-9.5762 2.93-7.7514 3.669-8.6458 8.328-10.085l5.113-1.5796-1e-3 5.1992c0 4.6706-0.67099 5.7106-6.593 10.228-7.81 5.9576-10.063 7.2591-10.063 5.8135v9.9e-5zm38.654-7.2883l-5.069-3.1091-5.876 2.6751c-4.754 2.1642-6.102 2.3583-7.055 1.0161-0.64801-0.9125-1.188-2.0854-1.2-2.6063-0.018982-0.86 7.346-5.3561 10.169-6.2077 0.643-0.19379 1.376-3.777 1.631-7.9626 0.254-4.1856 1.216-8.8674 2.137-10.404 1.64-2.7336 1.719-2.7423 3.7-0.4029 1.519 1.7945 1.821 4.4359 1.212 10.591l-0.811 8.2001 5.545 3.2745c5.955 3.5167 6.466 4.3997 3.879 6.7075-2.154 1.9222-2.284 1.8943-8.262-1.7717zm5.315-7.4645c-0.50201-0.4475-0.53-3.7168-0.063019-7.2652 0.55402-4.2024 0.30701-6.7509-0.707-7.3103-1.929-1.0639-2.076-8.1442-0.16898-8.1442 2.15 0 6.94 4.732 6.94 6.8563 0 1.0772 2.735 2.9481 6.307 4.3145 5.727 2.1905 6.165 2.6514 4.752 5.0065-1.056 1.7601-2.302 2.3197-3.878 1.7409-4.788-1.7583-6.484-1.2171-6.926 2.2091-0.41898 3.251-3.901 4.6939-6.256 2.5925v-9.9e-5zm-25.053-2.3186c-0.479-1.1136-0.871-3.08-0.871-4.3699 0-2.0102-0.513-2.1714-3.587-1.1285-4.204 1.4265-6.129 0.6748-6.129-2.3937 0-1.5071 1.782-2.6847 5.616-3.7096 3.515-0.9398 6.168-2.5834 7.093-4.3945 0.81198-1.5912 2.97-3.5001 4.794-4.2418 3.019-1.2272 3.317-1.0684 3.317 1.7649 0 1.7125-0.99301 4.4659-2.206 6.1187-1.409 1.9189-2.037 4.9254-1.735 8.317 0.41101 4.6305 0.093018 5.36-2.475 5.687-1.738 0.2213-3.304-0.4554-3.817-1.6496zm45.483-4.2045l0.907-6.0983-7.574-4.1202c-6.376-3.4683-10.538-7.6039-10.538-10.47 0-0.9047 8.853 0.8762 9.716 1.9545 0.38199 0.477 3.105 2.3116 6.052 4.0769l5.359 3.2097 6.327-2.42c5.019-1.92 6.56-2.0908 7.459-0.8264 2.113 2.9717 1.189 4.3099-4.31 6.2373-5.155 1.807-5.543 2.3041-6.425 8.2388-0.84598 5.6877-1.284 6.3158-4.409 6.3158-3.355 0-3.44-0.2034-2.564-6.0982zm12.134 1.64c-2.684-5.2561-2.018-6.6892 3.111-6.6892 3.914 0 4.979 0.6219 6.433 3.7555 2.02 4.3512 2.036 4.3284-3.645 5.2913-3.662 0.6205-4.563 0.2603-5.899-2.3576zm-78.5-5.3374c0.89999-6.0598 0.88501-6.0908-4.811-9.4541-6.245-3.6881-6.695-4.4925-3.736-6.6836 1.566-1.1597 3.148-0.805 7.602 1.7039l5.625 3.1685 6.278-2.7217c3.453-1.4969 6.278-3.1679 6.278-3.7135 0-0.5455 2.186-0.9917 4.858-0.9917s4.844 0.418 4.827 0.9289c-0.075989 2.2955-5.428 6.246-12.114 8.9421-6.043 2.4365-7.291 3.4841-7.306 6.1329-0.037018 6.1924-1.52 8.7681-5.049 8.7681-3.217 0-3.319-0.2531-2.452-6.0798zm-11.566 2.5952c-4.955-0.4264-5.284-1.0779-2.9-5.7466 1.127-2.2087 2.689-3.1491 5.205-3.1358 6.005 0.0317 7.09 1.3703 4.503 5.555-1.93 3.1227-3.017 3.6536-6.808 3.3274zm80.212-17.684c-2.643-1.9816-6.428-3.6029-8.41-3.6029s-4.817-0.8255-6.299-1.8344c-2.332-1.5878-2.414-2.0016-0.612-3.0776 1.145-0.6837 4.268-1.2553 6.94-1.2703 2.672-0.014896 6.732-1.1345 9.023-2.488 5.112-3.0215 7.066-3.1069 8.247-0.3605 0.604 1.4038-0.15799 2.836-2.263 4.2523l-3.173 2.1357 3.127 2.9699c2.975 2.8253 3.008 3.0651 0.676 4.9244-2.256 1.7996-2.831 1.669-7.256-1.6486zm-35.795-1.9611c-2.197-1.3675-3.123-3.1901-3.123-6.1462 0-3.3918 0.849-4.663 4.402-6.5912 4.472-2.4266 5.75-2.2568 11.41 1.517 3.788 2.5259 2.1 9.9093-2.714 11.866-4.517 1.8369-6.157 1.7307-9.975-0.6459zm45.39-1.0878c-2.82-2.6788-3.016-3.3473-1.283-4.3766 6.26-3.7173 7.024-3.7754 15.653-1.1919 11.658 3.4904 13.585 4.6473 9.223 5.5387-19.374 3.9595-19.456 3.9596-23.593 0.0298zm-78.631-0.1277c-0.56598-1.3164 0.268-2.8817 2.33-4.3713l3.211-2.3204-2.977-2.8275c-2.647-2.5148-2.757-3.0929-0.99402-5.2279 1.919-2.3253 2.128-2.2744 6.656 1.6251 3.166 2.7269 6.022 4.0254 8.854 4.0254 2.299 0 5.348 0.7627 6.777 1.6949 2.515 1.6413 2.505 1.7392-0.33801 3.0965-1.614 0.7709-5.006 1.414-7.537 1.4292-2.531 0.015202-6.164 1.1175-8.072 2.4497-4.27 2.9803-6.754 3.1141-7.91 0.4263zm-17.634-4.8359c-5.269-1.6426-9.831-3.2106-10.138-3.4844-1.09-0.9721 20.452-4.6479 23.004-3.9252 1.427 0.4043 3.65 1.775 4.939 3.0462 2.223 2.1917 2.132 2.446-1.766 4.9227-4.92 3.1262-4.127 3.1538-16.039-0.5593zm68.573-4.9614c0-2.722 3.982-5.8362 11.114-8.6922l8.319-3.3314v-6.0239c0-5.5997 0.24402-6.0238 3.47-6.0238 3.259 0 3.47 0.3947 3.48 6.5027 0.010986 6.2874 0.19501 6.5964 5.573 9.3369 4.812 2.4522 5.365 3.162 4.105 5.2641-1.827 3.0448-1.763 3.0492-8.759-0.6093l-5.812-3.0391-7.496 3.6584c-6.722 3.28-13.994 4.817-13.994 2.9576zm-28.464-1.5903c-1.531-0.443-5.733-2.6348-9.337-4.8707l-6.552-4.0653-5.529 2.517c-6.764 3.0793-6.594 3.0784-8.413 0.0438-1.314-2.1896-0.76199-2.7858 4.809-5.2012 6.166-2.6733 6.292-2.8473 6.292-8.6742 0-5.5169 0.25098-5.9463 3.471-5.9463 3.234 0 3.47 0.4169 3.47 6.1336 0 5.9373 0.211 6.2597 6.593 10.081 7.279 4.3585 10.063 6.9627 10.063 9.4133 0 1.7443-0.57199 1.8111-4.867 0.5688zm22.912-5.1841c0-1.3865 1.093-4.0151 2.429-5.8415 1.409-1.9262 2.429-5.6789 2.429-8.9363 0-4.8806 0.409-5.6674 3.123-6.0114 2.731-0.3461 3.123 0.1512 3.123 3.961 0 4.3365 0.019989 4.3506 4.313 3.0151 3.406-1.0592 4.57-0.9805 5.531 0.3741 2.192 3.0878 1.331 4.6017-3.112 5.4723-2.404 0.4713-6.752 3.0238-9.661 5.6721-5.918 5.388-8.175 6.0214-8.175 2.2946zm-14.951 0.4532c-0.97-0.3484-2.701-2.2498-3.846-4.2252-1.144-1.9755-4.567-4.7233-7.605-6.1063-5.833-2.6555-6.242-3.2486-4.213-6.1096 1.033-1.4577 1.938-1.5148 4.902-0.3096 4.769 1.9388 4.535 2.0323 5.586-2.238 0.617-2.5057 1.756-3.7159 3.499-3.7159 3.621 0 4.143 1.2888 2.753 6.7896-0.88602 3.5046-0.676 5.7194 0.77899 8.2307 2.122 3.6619 2.677 8.5777 0.95001 8.4154-0.57202-0.053699-1.835-0.3828-2.805-0.7311zm7.139-3.1965c-0.582-1.5328-0.87299-6.0837-0.646-10.113 0.39801-7.0964 0.25198-7.4461-4.681-11.148-3.663-2.7485-4.83-4.4296-4.157-5.9887 1.266-2.9324 2.763-2.7378 8.388 1.0908l4.787 3.2583 6.264-2.9487c5.421-2.5516 6.443-2.6985 7.592-1.0908 2.058 2.8826 1.783 3.2642-4.877 6.7468l-6.246 3.2664-0.044 7.689c-0.057007 9.8125-3.995 15.516-6.38 9.2374zm44.117-3.2608c-1.547-0.8751-1.506-1.6773 0.245-4.6974 1.852-3.1963 2.718-3.5788 7.071-3.1253 5.708 0.5946 5.631 0.4507 2.843 5.2616-2.15 3.7097-6.285 4.7521-10.159 2.5611zm-92.471-7.8867c-1.043-2.214-1.794-4.0847-1.668-4.1572 0.12701-0.072399 2.253-0.4752 4.725-0.8951 3.96-0.6724 4.745-0.3321 6.593 2.8571 3.067 5.2923 2.645 6.2207-2.827 6.2207-4.242 0-5.188-0.5584-6.823-4.0255zm69.189-5.6042c-0.91498-4.3543-0.62997-4.7738 7.908-11.609 4.871-3.9003 9.09-6.8838 9.374-6.6301 0.70099 0.62576-5.365 16.973-6.974 18.793-0.70599 0.7987-3.1 2.0173-5.321 2.7081-3.9 1.2132-4.069 1.1026-4.987-3.2618zm-41.506-0.0923c-3.678-2.0015-4.401-3.37-5.899-11.166-0.939-4.8866-1.707-9.492-1.707-10.234 0-1.3337 12.089 9.9781 14.36 13.436 1.281 1.9512-0.002014 10.257-1.584 10.249-0.53799-0.002501-2.864-1.0311-5.17-2.2857zm22.396-11.91c-2.958-4.0292-2.831-5.517 0.76498-8.9329l3.007-2.8559 2.578 3.7828c2.534 3.718 2.528 3.845-0.32501 7.4209-1.597 2.001-3.101 3.6381-3.343 3.6381s-1.449-1.3738-2.682-3.0529z"/>
  <path d="m352.05-38.315c-0.45633-0.40723-0.45435-1.6134 0.004486-2.6804 0.55054-1.2802 0.28189-1.6354-0.78955-1.0444-0.96271 0.5309-1.624 0.14324-1.624-0.95193 0-1.0161 1.3318-2.2247 2.9595-2.6857 2.3328-0.66071 2.5533-1.0718 1.041-1.9414-1.6127-0.92737-1.5866-1.2976 0.1636-2.3228 1.1452-0.67083 2.7961-1.2282 3.6687-1.2386 0.87262-0.010433 1.946-0.85501 2.3855-1.8769 1.0724-2.4939-3.7459-2.4817-6.0683 0.015282-1.3251 1.4248-2.1965 1.5367-3.6401 0.46765-1.4239-1.0545-2.4179-1.0205-3.98 0.1364-1.1451 0.84803-2.082 1.195-2.082 0.77095 0-2.1207-0.35309-2.7067-2.1806-3.6194-2.5656-1.2812-2.502-2.7257 0.28723-6.5243 2.0878-2.8433 2.4655-2.9353 4.6867-1.1415 2.2031 1.7791 2.4946 1.7678 3.3103-0.12906 0.8288-1.9273 1.0786-1.9312 3.4039-0.05344 1.3802 1.1146 3.6298 2.0265 4.9992 2.0265 2.0558 0 2.1885-0.32386 0.76175-1.8579-0.95035-1.0219-2.5515-1.8579-3.558-1.8579-2.6543 0-4.0383-2.5884-1.9885-3.7189 1.2524-0.69076 0.90881-1.2028-1.2102-1.8029-2.894-0.81959-4.1704-3.1484-1.7257-3.1484 0.67865 0 1.1471-0.97431 1.0411-2.1651-0.14932-1.6768 1.0179-2.2253 5.1758-2.4322 5.3221-0.2648 5.3619-0.23257 4.6051 3.7134-0.41995 2.1892-0.44144 3.2837-0.04776 2.4322 1.4006-3.0296 3.2605-1.4815 3.2605 2.7137 0 2.3441 0.62457 4.6065 1.388 5.0275 1.5097 0.8326 1.8294-0.54134 1.4099-6.0588-0.22122-2.9098 0.17062-3.4299 2.0894-2.7728 1.9472 0.66676 2.2108 0.27185 1.5014-2.2501-0.80878-2.8754-0.54742-3.0434 4.3568-2.8009 3.5835 0.17719 5.217 0.83968 5.217 2.1158 0 1.0218 0.92813 2.3772 2.0626 3.012 1.6601 0.92889 1.2539 1.4618-2.082 2.731-2.2796 0.86729-3.364 1.602-2.4097 1.6328 3.0082 0.096863 1.8823 2.5444-1.735 3.7717-1.9086 0.64745-3.4701 1.7484-3.4701 2.4465 0 1.9064 3.5852 1.5263 5.5522-0.58864 2.2764-2.4476 4.1642-2.3606 4.1642 0.19196 0 1.8933 0.19757 1.8902 2.5874-0.039589 2.4496-1.9781 2.7159-1.9143 5.0016 1.1985 2.3122 3.149 1.9236 5.5981-1.6354 10.305-0.2114 0.27967-1.6375-0.5034-3.1691-1.7402-2.5013-2.02-2.7846-2.0402-2.7846-0.19882 0 2.5525-1.8878 2.6396-4.1642 0.19195-0.95038-1.0219-3.0568-1.8394-4.6811-1.8167-2.9478 0.041149-2.9475 0.04541 0.18857 2.3795 1.7279 1.2861 3.9141 2.6185 4.8582 2.961 1.2906 0.46818 1.2178 0.93227-0.29327 1.8704-1.6138 1.0021-1.2603 1.4156 1.7956 2.1 3.4202 0.76598 4.615 4.0212 1.245 3.392-0.76904-0.14359-1.3156 0.69135-1.2145 1.8554 0.13965 1.609-1.0672 2.179-5.0333 2.377-4.9046 0.24483-5.1656 0.07724-4.3568-2.7984 0.70807-2.5174 0.44428-2.9164-1.4907-2.2538-1.9638 0.67247-2.275 0.13405-1.8895-3.2694 0.28-2.4714-0.22104-4.2852-1.2735-4.6101-1.1769-0.36333-1.735 0.89207-1.735 3.9027 0 4.3709-1.7866 5.9178-3.3381 2.8901-0.43634-0.85154-0.43878 0.26322-0.005371 2.4772 0.76196 3.8926 0.6315 4.0255-3.9491 4.0255-2.6054 0-5.1105-0.3332-5.5668-0.74037z"/>
  <path d="m236.63 229.4c3.823 1.5323 4.1659 6.4407 0.69402 9.9358-2.3524 2.3682-2.3334 2.4006 0.60278 1.0266 7.2057-3.3722 8.5019 0.91096 1.4793 4.8882-3.1582 1.7886-3.5745 2.3154-1.3881 1.7562 4.597-1.1755 4.0674 2.5635-0.67725 4.7818-3.2953 1.5407-4.3101 1.5417-7.6343 0.007843-4.7606-2.1968-5.3044-5.9249-0.71077-4.8732 1.8828 0.43106 1.3314-0.11697-1.388-1.3799-2.5751-1.1958-4.5111-3.0616-4.5111-4.3474 0-2.6003 1.7074-2.838 5.9904-0.83351 2.9362 1.374 2.9552 1.3415 0.60277-1.0266-5.5868-5.6242-0.49374-12.916 6.9402-9.9358zm31.231 16.222c5.7844 3.9182 0.87946 11.765-6.2986 10.077l-3.0706-0.7223 3.123 2.0433c1.7177 1.1239 3.1231 2.4731 3.1231 2.9984 0 2.1311-4.5401 2.2994-8.054 0.29846-3.5409-2.0163-3.6416-2.0163-1.853-7.32e-4 2.8004 3.1559-1.3264 4.1928-5.9433 1.4933-2.6451-1.5466-3.5823-3.1567-3.5823-6.1546 0-4.785 3.6601-6.9482 4.5826-2.7084 0.34843 1.6014 0.66919 0.80974 0.78053-1.9264 0.10397-2.5546 0.45026-4.6447 0.7695-4.6447 0.31929 0 1.5685-0.33832 2.7761-0.75188 1.7129-0.58652 2.2413 0.16237 2.4035 3.4062 0.17438 3.4856 0.29858 3.6345 0.76804 0.92059 0.33716-1.9491 1.9376-3.7975 4.0214-4.6447 4.1144-1.6728 3.47-1.7044 6.454 0.3168zm-61.843-0.2424c1.6765 0.72284 3.3006 2.7752 3.6092 4.5609 0.47229 2.7334 0.59389 2.5894 0.76898-0.91124 0.1622-3.2438 0.69066-3.9927 2.4036-3.4062 1.2076 0.41356 2.4568 0.75188 2.7761 0.75188 0.31924 0 0.65292 1.8114 0.7415 4.0254 0.088531 2.214 0.44 3.0809 0.78098 1.9266 1.0675-3.6141 4.6102-1.0571 4.6102 3.3275 0 2.9979-0.9372 4.608-3.5822 6.1546-4.617 2.6995-8.7437 1.6627-5.9434-1.4933 1.7886-2.0156 1.6879-2.0156-1.853 7.32e-4 -3.5138 2.001-8.054 1.8327-8.054-0.29846 0-0.5253 1.4054-1.8745 3.1231-2.9984l3.1231-2.0433-3.0706 0.7223c-7.1781 1.6884-12.083-6.1586-6.2986-10.077 2.8614-1.9383 2.9264-1.9406 6.8652-0.24236zm36.974 8.0141c1.7242 1.5386 0.93738 6.3367-1.1568 7.0538-1.2938 0.44305-2.082-0.007324-2.082-1.1896 0-1.3389-0.82246-1.6696-2.7761-1.1162-4.1737 1.182-3.5165-2.3979 0.75932-4.1363 4.146-1.6856 4.0628-1.676 5.2556-0.61168zm-13.302 0.6908c3.984 1.7083 4.2802 5.1711 0.34698 4.0572-1.9536-0.55334-2.7761-0.22263-2.7761 1.1162 0 1.2117-0.78336 1.6343-2.1572 1.1638-1.3495-0.4621-1.9991-1.9188-1.735-3.891 0.49454-3.6936 2.0283-4.2871 6.3213-2.4462zm8.6753 7.8352c0 0.91992 0.97636 2.1601 2.1697 2.756 1.9677 0.98264 1.9677 1.2332 0 2.6905-1.1933 0.88373-2.1697 2.3189-2.1697 3.1892 0 0.9747-1.8174 1.5824-4.7325 1.5824-3.5311 0-4.913-0.61554-5.4432-2.4246-0.60996-2.0812-1.0999-2.2076-3.4596-0.89276-2.27 1.265-3.4043 1.1488-6.5102-0.66708l-3.7611-2.1991 3.972-2.1916c4.6398-2.56 6.5204-2.071 5.294 1.377-0.84482 2.3751-0.77934 2.3828 2.0256 0.23978 1.5942-1.2181 2.8986-2.8711 2.8986-3.6735 0-0.84143 2.0559-1.4588 4.8581-1.4588 3.1536 0 4.8582 0.58682 4.8582 1.6725zm10.218 1.843l3.972 2.1916-3.6143 2.1132c-2.0509 1.1991-4.6529 1.7576-6.0152 1.2911-1.7936-0.61426-1.96-1.0653-0.65774-1.7835 0.95872-0.52875 1.3671-1.8358 0.90749-2.9045-1.2737-2.9619 0.9946-3.3427 5.4077-0.90781zm6.889 5.722c0.50232 0.4483 0.13796 1.6927-0.80971 2.7654-1.4251 1.6134-1.0758 1.5819 2.0214-0.18164 3.5138-2.001 8.054-1.8327 8.054 0.29852 0 0.52524-1.4054 1.8745-3.1231 2.9983l-3.123 2.0433 3.0706-0.7222c4.6316-1.0894 8.7278 1.4232 8.7278 5.3536 0 7.2736-11.653 7.6306-12.904 0.39529-0.46945-2.7139-0.59366-2.565-0.76804 0.92059-0.1622 3.2438-0.69061 3.9927-2.4035 3.4062-1.2076-0.41351-2.4568-0.75183-2.7761-0.75183-0.31924 0-0.66553-2.0901-0.7695-4.6448-0.11134-2.7362-0.4321-3.5277-0.78053-1.9264-0.9225 4.2397-4.5826 2.0765-4.5826-2.7084 0-2.9486 0.93663-4.6079 3.4213-6.0606 3.7074-2.1677 5.326-2.4522 6.7456-1.1854zm-36.887 1.2589c2.1582 1.3435 3.1231 3.1957 3.1231 5.9955 0 4.3772-3.544 6.9286-4.6102 3.319-0.34097-1.1544-0.69244-0.28748-0.78098 1.9266-0.088577 2.214-0.42226 4.0254-0.7415 4.0254-0.31929 0-1.5685 0.33832-2.7761 0.75183-1.7129 0.58652-2.2414-0.16235-2.4036-3.4062-0.17435-3.4856-0.29857-3.6345-0.768-0.92059-1.2515 7.2353-12.904 6.8783-12.904-0.39529 0-3.9304 4.0961-6.443 8.7277-5.3536l3.0706 0.7222-3.1231-2.0433c-1.7177-1.1238-3.1231-2.4731-3.1231-2.9983 0-2.1312 4.5401-2.2995 8.054-0.29852 3.0971 1.7636 3.4466 1.795 2.0214 0.18164-3.2555-3.6852 1.0589-4.7278 6.2342-1.5065zm24.406 1.229c1.2633 1.1273 1.1279 4.4032-0.2628 6.3596-0.91544 1.2879-1.8871 1.3101-4.8369 0.11084-4.3871-1.7837-5.1766-5.4066-0.91522-4.1997 1.9701 0.55789 2.7761 0.22253 2.7761-1.1552 0-2.0056 1.6172-2.5626 3.2388-1.1156zm-15.731 1.0124c0 1.4809 0.76529 1.8279 2.7761 1.2584 4.2558-1.2053 3.4748 2.4148-0.90517 4.1956-4.3535 1.77-6.4752 0.43756-5.8056-3.6461 0.53903-3.2866 3.9347-4.8469 3.9347-1.8079zm10.08 7.6115c4.7347 2.2138 5.2496 5.9124 0.67725 4.8655-1.8826-0.43106-1.3314 0.11697 1.3881 1.3798 2.5751 1.1959 4.5111 3.0616 4.5111 4.3475 0 2.6004-1.7074 2.838-5.9904 0.83362-2.9759-1.3927-2.985-1.3716-0.49124 1.1365 3.1219 3.1399 2.5777 7.4871-1.2169 9.7232-2.4165 1.424-3.297 1.3885-5.8992-0.23792-3.6809-2.3006-3.9409-6.2619-0.62964-9.5952 2.3524-2.3682 2.3334-2.4005-0.60277-1.0265-4.283 2.0044-5.9904 1.7668-5.9904-0.83362 0-1.2858 1.936-3.1516 4.5111-4.3475 2.7194-1.2628 3.2708-1.8108 1.388-1.3798-4.5936 1.0517-4.0499-2.6764 0.71077-4.8733 3.3242-1.5339 4.339-1.5329 7.6343 0.007782z"/>
  <path d="m346.23 300.88c0.39926 1.3625 1.2777 2.4772 1.9521 2.4772 0.67438 0 1.2262 0.83606 1.2262 1.8579 0 1.0219-1.0098 1.8579-2.244 1.8579-1.5375 0-2.0222 0.75656-1.5396 2.4033 0.53009 1.8086-0.28845 2.712-3.3082 3.6513-2.2068 0.68655-4.0125 1.8345-4.0125 2.5512 0 1.8254 2.9811 1.5546 6.1037-0.5545 2.9027-1.9607 5.5972-1.2926 4.0907 1.0142-0.52536 0.80438 0.36194 0.43262 1.9719-0.82629 2.7476-2.1483 6.7644-1.8504 5.2149 0.38684-0.3898 0.56278 0.22461 1.3428 1.3653 1.7335 2.6673 0.91333 2.6316 2.5907-0.10709 5.0346-1.1996 1.0705-1.7874 1.9464-1.3061 1.9464 0.48129 0 0.47037 0.58444-0.024384 1.2988-0.61499 0.88779-1.5192 0.83981-2.858-0.15167-1.4638-1.0841-2.438-1.0954-3.8564-0.044861-1.4436 1.0691-2.315 0.95712-3.6401-0.46765-1.9643-2.1121-7.637-2.6221-6.2075-0.55823 0.50098 0.7233 2.4796 1.8473 4.3969 2.4977 2.786 0.94528 3.1624 1.5308 1.8742 2.916-1.2781 1.3741-1.0218 1.9004 1.2372 2.5401 2.9045 0.8226 3.9801 3.1173 1.4611 3.1173-0.76346 0-1.388 1.1147-1.388 2.4772 0 2.7799-4.8459 3.5276-6.0209 0.92896-0.56009-1.2386-0.72198-1.2386-0.80969 0-0.18356 2.5936-2.8857 1.7238-2.8857-0.92896 0-1.39-0.92532-2.4772-2.1086-2.4772-1.5554 0-1.8802-0.81149-1.2383-3.0938 0.47858-1.7015 0.45688-4.0548-0.048248-5.2293-1.4498-3.3715-3.727 0.71726-2.7383 4.917 0.60742 2.5801 0.27014 3.4062-1.3905 3.4062-1.267 0-2.1924 1.0456-2.1924 2.4772 0 2.6527-2.7021 3.5225-2.8856 0.92896-0.087708-1.2386-0.24963-1.2386-0.80966 0-1.1751 2.5986-6.0209 1.851-6.0209-0.92896 0-1.3625-0.62463-2.4772-1.3881-2.4772-2.8728 0-1.2456-2.462 2.1264-3.2172 3.1372-0.70261 3.2676-0.94815 1.2159-2.2869-2.0374-1.3293-1.8058-1.682 2.0377-3.1026 4.3744-1.6168 5.841-3.7794 2.5631-3.7794-0.97525 0-3.1204 0.84207-4.7671 1.8712-1.9012 1.1884-3.3111 1.4132-3.8632 0.61594-0.58524-0.84488-1.7493-0.83502-3.5612 0.030334-1.9724 0.94192-2.6918 0.88608-2.6918-0.20883 0-0.82184-0.96658-2.4472-2.148-3.6121-1.9405-1.9134-1.931-2.3115 0.099182-4.123 1.236-1.1028 1.7652-2.0051 1.1762-2.0051-0.58893 0-0.33597-0.65573 0.56213-1.4571 1.2518-1.117 2.3441-0.90024 4.6804 0.92892 1.676 1.3123 2.6176 1.7278 2.0922 0.92337-1.5705-2.4048 1.8497-3.2696 4.4919-1.1359 1.348 1.0885 3.1826 1.9792 4.0767 1.9792 2.8902 0 1.725-2.4899-1.8443-3.9412-1.9085-0.77606-3.4701-2.4361-3.4701-3.6893 0-1.2531-0.98898-2.2784-2.1977-2.2784s-1.9115-0.69672-1.5616-1.5483c0.34988-0.8515 1.2748-1.4279 2.0554-1.2808 0.78058 0.147 1.1166-0.76556 0.74661-2.0277-0.86151-2.9394 1.8621-4.4745 4.4882-2.5297 1.5332 1.1355 2.0212 1.1435 2.0212 0.033539 0-0.8049 0.6246-1.119 1.388-0.69788 0.76343 0.42105 1.388 1.8474 1.388 3.1696 0 1.365 0.94754 2.4041 2.1924 2.4041 1.6606 0 1.9979 0.82602 1.3905 3.4062-1.0383 4.4106 1.2294 8.0571 2.6051 4.1891 0.51663-1.4525 0.54291-3.7556 0.058258-5.1181-0.62528-1.758-0.24948-2.4772 1.2945-2.4772 1.2871 0 2.1756-1.0658 2.1756-2.6097 0-1.7856 0.64346-2.3894 2.0376-1.912 1.1207 0.38379 2.4068 0.16467 2.858-0.48679 1.3776-1.989 3.6518-1.3236 4.4186 1.2927z"/>
  <path d="m502.44 269.38c3.1968 1.5476 3.8171 2.6647 3.8171 6.8739 0 3.7169-0.81338 5.6145-3.1231 7.2854-4.6828 3.3878-1.8841 4.3999 3.8372 1.3877 6.3045-3.3192 6.2261-3.3314 6.2261 0.96735 0 2.9548-1.1168 4.1821-6.2462 6.8646-6.8734 3.5944-8.7021 6.8361-2.1509 3.8131 5.3695-2.4778 5.6211-2.4249 5.6211 1.1816 0 2.3523-1.3419 3.6822-5.7319 5.6807-5.5213 2.5134-5.955 2.5334-11.798 0.54205-4.9576-1.6894-6.0664-2.641-6.0664-5.2059 0-3.2078 0.92932-3.3354 7.2872-0.9997 1.3359 0.49078 2.4291 0.34967 2.4291-0.31366 0-0.66327-3.1231-2.3641-6.9402-3.7797-6.1594-2.2842-6.9403-2.9946-6.9403-6.3142v-3.7404l6.2462 2.3892c4.6913 1.7944 6.2462 1.9871 6.2462 0.77408 0-0.88828-1.4877-2.2199-3.3061-2.9592-2.3982-0.9751-3.5007-2.6453-4.015-6.0822-0.60074-4.0155-0.14948-5.1621 2.959-7.5187 4.2619-3.231 6.4016-3.3864 11.649-0.84598zm49.97 22.295c3.1576 1.5287 3.8171 2.6825 3.8171 6.6784 0 3.9811-0.75159 5.308-4.2739 7.5463-3.5745 2.2712-4.8347 2.4877-7.6996 1.3229-8.0023-3.2535-8.2019-0.63196-0.26001 3.4164 5.4202 2.763 5.624 3.0593 3.1941 4.6448-3.5338 2.3058-6.1754 2.119-11.087-0.78366-5.6366-3.3311-9.5046-3.1817-4.4651 0.17246 3.0591 2.036 3.5293 2.9301 2.2591 4.2958-2.2433 2.412-4.0456 2.1724-9.7705-1.299-4.054-2.4581-5.1422-4.0218-5.818-8.3606-0.64221-4.1235-0.31036-5.6888 1.4597-6.8851 3.3781-2.283 4.5363-1.9064 4.5363 1.4752 0 1.6629 0.70764 3.4136 1.5724 3.8906 1.1401 0.62875 1.3106-1.003 0.62024-5.9342-0.88416-6.3148-0.70801-6.9443 2.4631-8.7985 3.0594-1.7888 3.5013-1.7976 4.238-0.084351 0.45245 1.052 0.82257 3.5392 0.82257 5.5271 0 2.1775 0.73218 3.6146 1.8416 3.6146 1.2375 0 1.6503-1.1643 1.258-3.5489-0.46747-2.8422 0.24493-4.0754 3.5778-6.193 4.868-3.0931 6.5573-3.1937 11.714-0.69717zm-84.671 5.0079c3.3919 1.5946 3.8294 2.5142 3.9266 8.2575 0.10364 6.1066 0.19061 6.2581 1.5782 2.7472 1.8555-4.695 1.6634-4.5358 4.3598-3.6125 1.7167 0.58789 2.2808 2.3966 2.2808 7.3138 0 6.0062-0.39026 6.7984-4.8413 9.8279-4.0424 2.7514-5.3238 3.0648-7.7648 1.899l-2.9233-1.3961 3.1434-2.9858c4.6944-4.459 2.4553-4.7956-3.5539-0.53427-5.8924 4.1784-7.3976 4.4604-11.059 2.0713-2.3853-1.5564-2.2287-1.8756 2.4972-5.0922 5.5383-3.7695 5.6168-6.8222 0.092346-3.5922-3.1978 1.8696-3.8376 1.8552-8.9499-0.2019-5.007-2.0147-5.5059-2.6398-5.5059-6.8975 0-3.8386 0.78799-5.1826 4.3752-7.462l4.3753-2.7801 4.9776 2.3861c2.7377 1.3123 5.1777 3.5008 5.4224 4.8632 1.0487 5.8428 2.2889 5.7573 2.9947-0.20654l0.7575-6.3995 3.817 1.7943zm46.253 8.3142c1.6146 3.7543-0.015198 11.326-2.5293 11.751-1.6804 0.28415-2.4291-0.3808-2.4291-2.1572 0-2.9232-0.50647-3.0762-4.2553-1.2859-2.3005 1.0986-2.6848 0.86533-2.6848-1.6298 0-3.7361 10.604-9.6876 11.899-6.6781zm-23.35 2.0631c3.2446 1.3003 5.8992 2.6246 5.8992 2.9428 0 0.3183 0.41501 1.5437 0.92221 2.7233 0.77393 1.7995 0.34241 2.0146-2.6817 1.3375-2.8436-0.63693-3.79-0.28403-4.4859 1.6724-0.96332 2.7086-1.8332 2.9757-4.5968 1.4119-1.1865-0.67148-1.6695-3.0172-1.388-6.7409l0.4317-5.7111 5.8992 2.3642zm17.004 12.311c0 2.5446 0.83145 3.8678 2.7761 4.4186 3.5648 1.0095 3.5323 2.6481-0.086914 4.3765-2.0118 0.96085-2.7384 2.3545-2.4442 4.6884 0.30926 2.4535-0.12134 3.1849-1.6482 2.7996-3.156-0.79639-7.3527-0.60779-10.048 0.45136-1.9615 0.77078-2.429 0.34048-2.429-2.235 0-2.2027-1.1536-3.7288-3.7283-4.9326l-3.7282-1.7432 3.0342-1.6909c2.1054-1.1733 3.0342-2.9186 3.0342-5.7015 0-3.8285 0.15759-3.9466 3.4701-2.5998 2.6061 1.0595 4.3504 1.0529 7.0056-0.026611 4.7808-1.9437 4.7928-1.9382 4.7928 2.195zm16.31 2.2453c2.4811 1.1018 4.5111 2.4313 4.5111 2.9542 0 2.0016-9.4062 7.2984-11.617 6.5415-2.8257-0.96756-2.8708-2.2345-0.15143-4.2484 1.8651-1.3812 1.7811-1.7714-0.71722-3.3329-3.1316-1.9574-2.5278-4.12 1.1158-3.9971 1.291 0.043549 4.3773 0.98074 6.8583 2.0826zm-38.573 0.2587c1.7458 0.98541 1.6923 1.4739-0.38571 3.5229-2.3001 2.268-2.2787 2.459 0.46027 4.101 2.7534 1.6507 2.7668 1.7805 0.32172 3.1232-2.0527 1.1274-3.6973 0.79703-8.4188-1.6911l-5.8677-3.0922 5.2376-3.5384c5.915-3.996 5.8849-3.9876 8.6526-2.4254zm49.1 7.6454c2.4243 1.2578 2.3966 1.4616-0.5838 4.2926-4.6083 4.3771-2.541 4.7439 2.9837 0.5293 5.3029-4.0453 7.902-4.5214 11.581-2.1211 2.2996 1.5004 2.1133 1.8702-2.5367 5.0351-5.5247 3.7602-5.5159 6.9213 0.010132 3.6904 3.1979-1.8697 3.8376-1.8552 8.95 0.2019 5.0068 2.0147 5.5059 2.6398 5.5059 6.8974 0 3.8129-0.79156 5.1849-4.2642 7.3914-4.1832 2.658-4.3676 2.6678-9.7163 0.51553-4.4534-1.792-5.4522-2.8268-5.4522-5.6486 0-1.9-0.62463-3.799-1.3881-4.2201-0.84479-0.46597-1.388 1.3633-1.388 4.6749 0 6.5708-0.67834 7.3272-4.9966 5.5715-2.9046-1.1808-3.3317-2.193-3.3317-7.895 0-3.5972-0.62463-6.8848-1.3881-7.3058-0.82605-0.4556-1.388 1.0193-1.388 3.6427 0 4.8142-0.28388 5.0227-4.2554 3.126-2.0272-0.96811-2.6849-2.6113-2.6849-6.7082 0-4.826 0.59772-5.8485 5.405-9.2459 6.1271-4.3304 5.5606-4.1767 8.9386-2.4241zm-57.171 5.4253c4.4234 2.5873 5.1241 3.6826 5.5723 8.7099 0.39737 4.4589-0.017059 6.0034-1.8454 6.8765-3.405 1.6261-3.6136 1.5088-4.6251-2.6006-1.5019-6.1018-3.2246-3.0183-1.886 3.3758 1.1159 5.3299 0.93854 6.0863-1.8706 7.9771-3.7202 2.504-5.2631 1.9106-5.2631-2.0243 0-3.852-1.3465-6.8405-3.0821-6.8405-0.76828 0-1.1198 1.6852-0.78113 3.7447 0.52448 3.1883-0.078888 4.1279-4.0599 6.3235-4.1051 2.264-5.1922 2.3881-8.9035 1.0163-4.1561-1.5362-6.77-5.3216-6.77-9.8043 0-1.2876 2.1145-3.3875 4.8744-4.8406 4.035-2.1244 5.4702-2.3242 8.3342-1.1598 4.1539 1.6889 6.6242 0.067078 2.9363-1.9279-1.4266-0.77158-3.8438-2.2705-5.3718-3.3307-2.7507-1.9088-2.7441-1.9475 0.67059-3.9441 3.2681-1.9108 3.7091-1.8585 8.4212 0.99878 2.7349 1.6583 6.0988 3.0057 7.4752 2.9943 1.7551-0.014648 1.1049-0.8194-2.1765-2.6938-4.3616-2.4915-4.5084-2.7843-2.1638-4.3143 3.3509-2.1865 4.5622-2.0178 10.515 1.464zm37.728 0.3009c1.3668 2.0618 2.4437 11.241 1.3809 11.772-0.6264 0.31287-3.7935-0.48706-7.0381-1.7777-4.0702-1.619-5.8992-3.1073-5.8992-4.8004 0-1.999 0.64331-2.3099 3.4701-1.6768 2.8797 0.64493 3.4702 0.33279 3.4702-1.8343 0-2.4776 3.2933-3.678 4.6161-1.6825zm-23.063 2.7869c0.8382 2.8601 1.0547 2.9156 4.6576 1.195 2.2911-1.0941 2.6833-0.86704 2.6741 1.5483-0.007599 2.0089-1.6539 3.6678-5.6728 5.7161-3.1141 1.5871-5.8633 2.7019-6.1095 2.4772-1.0096-0.92172-1.1674-10.498-0.19601-11.9 1.5825-2.2849 3.8313-1.8186 4.6465 0.96347zm17.059 10.904c3.0346 1.321 5.0247 3.1583 5.3016 4.8949 0.49286 3.089-0.60895 3.3691-6.0246 1.5318-2.6733-0.90698-3.5356-0.86203-3.1521 0.16406 0.29013 0.77695 3.3108 2.3266 6.7124 3.4437 5.4047 1.7749 6.2403 2.5418 6.6242 6.0799l0.4392 4.0488-5.1199-1.9089c-2.816-1.0499-5.6682-1.9089-6.3384-1.9089-2.5028 0-1.0952 2.1297 2.3275 3.5212 3.1584 1.2842 3.4997 2.0598 3.1231 7.0974-0.34491 4.6123-1.1161 6.0294-4.1806 7.6821-3.4686 1.8704-4.1205 1.8719-8.4744 0.019226-3.8049-1.6191-4.8831-2.9214-5.5767-6.7357-0.7514-4.1317-0.38257-5.069 2.9223-7.4261 5.2222-3.7246 2.9276-5.049-3.1781-1.8345-2.7482 1.4468-5.2734 2.6307-5.6114 2.6307-0.33807 0-0.61472-1.6485-0.61472-3.6636 0-3.052 1.0818-4.2293 6.4801-7.0523 6.0731-3.1759 6.6369-5.8585 0.62833-2.989-3.9132 1.8688-4.3324 1.6993-4.3324-1.7524 0-2.3311 1.3248-3.6746 5.4969-5.5738 6.5145-2.9657 6.3595-2.9623 12.548-0.26865z"/>
  <path d="m152.19 311.28c3.8523 4.1421-3.0157 10.271-7.6575 6.833-1.1471-0.84949-1.8979-2.9857-1.6684-4.7471 0.31282-2.4013 1.315-3.2956 4.0061-3.5747 1.9739-0.20477 4.3678 0.46515 5.3198 1.4888zm2.0471 13.848c1.198 2.7857 1.2301 2.7349-2.9745 4.7007-3.3736 1.5773-4.2604 1.5509-7.6342-0.22748-4.2213-2.2252-4.3588-2.5166-2.4502-5.1938 1.051-1.4743 1.8603-1.5617 3.92-0.42331 1.6034 0.8862 3.344 1.0118 4.5535 0.32864 2.7734-1.5667 3.6264-1.415 4.5854 0.81528zm-11.852 6.9648c4.4183 2.4962 4.7624 2.5135 9.5483 0.4769 4.01-1.7063 5.1863-1.8011 6.1162-0.49271 1.9465 2.7387 1.4032 3.4192-4.9174 6.1594l-6.1112 2.6494-6.4629-3.3796c-5.6427-2.9509-6.2381-3.6428-4.6919-5.4524 0.97401-1.1399 1.808-2.1801 1.8532-2.3116 0.045227-0.13141 2.1448 0.92636 4.6657 2.3507zm-2.2089 8.4524l6.6116 3.7049 6.9738-3.1535c3.8356-1.7343 7.575-2.8219 8.3098-2.4166 3.0637 1.6896 0.85277 4.1911-7.009 7.9303l-8.345 3.969-8.4007-4.5537c-5.7732-3.1295-8.1557-5.1234-7.6175-6.3749 0.43076-1.0017 0.78316-2.0543 0.78316-2.3392 0-1.1779 2.4401-0.27029 8.6937 3.2339zm-48.564-2.3466c3.2126 1.6043 3.0544 6.8621-0.25394 8.4421-3.396 1.6218-9.3592-2.2474-8.073-5.2382 1.2804-2.9774 5.5166-4.6074 8.327-3.2039zm116.74 4.1952c2.7875 2.4874 2.8678 4.7867 0.23518 6.7363-4.4429 3.2903-11.268-1.5423-8.2391-5.834 2.0849-2.9542 5.2985-3.3165 8.0039-0.90234zm-84.482 1.8608c0.53536 0.77301 0.54584 4.9676 0.023346 9.3214l-0.95 7.916-7.577 3.8684c-4.1673 2.1276-8.4919 3.555-9.6102 3.1722-3.9029-1.3364-1.9822-4.0877 4.8461-6.9416l6.8794-2.8752 0.4078-7.5425c0.31649-5.8536 0.92274-7.63 2.7075-7.9332 1.2648-0.21484 2.7377 0.24179 3.273 1.0147zm-9.0428 5.5232v6.7915l-6.8084 3.0786c-5.8625 2.651-6.9231 2.8118-7.6342 1.1581-1.3373-3.1097-0.9848-3.9831 1.942-4.812 4.5858-1.2987 6.9484-4.2777 6.9484-8.761 0-3.4209 0.53978-4.2467 2.7761-4.2467 2.4385 0 2.7761 0.82574 2.7761 6.7914zm-9.2318-5.8554c1.6748 2.4181-1.0945 7.9522-4.8456 9.683-3.6452 1.682-4.0999 1.6611-4.9116-0.22662-0.54015-1.256 0.019745-2.677 1.413-3.5861 1.2692-0.82806 2.3076-2.6983 2.3076-4.156 0-1.7977 0.86673-2.6504 2.6942-2.6504 1.4818 0 2.9859 0.4212 3.3425 0.93604zm88.35 4.49c0 1.7166 0.96228 3.6016 2.1384 4.1889 1.2971 0.6478 1.7847 1.8902 1.2395 3.158-1.1454 2.6635-3.2351 2.6096-7.3117-0.18872-4.3317-2.9734-3.8131-9.2976 0.81065-9.8835 2.5298-0.32065 3.1231 0.19699 3.1231 2.7252zm-9.7163 2.0473c0 4.3934 0.58397 5.3036 4.8395 7.5442 4.1472 2.1835 4.6301 2.8971 3.3757 4.9887-1.4359 2.394-1.5747 2.3824-7.2686-0.61166-5.5983-2.9438-5.8196-3.299-6.221-9.9849-0.37735-6.2838-0.15007-6.9324 2.4291-6.9324 2.3982 0 2.8454 0.78516 2.8454 4.9961zm-8.7763 2.2054l-0.8435 7.2015 6.8644 3.6362c3.7754 1.9999 6.8769 4.3504 6.892 5.2234 0.055283 3.187-3.8739 2.771-11.524-1.22l-7.8262-4.0829-0.0274-8.9799c-0.027115-8.888 0.010147-8.9798 3.6405-8.9798 3.6413 0 3.6617 0.052155 2.8243 7.2015zm-39.524-2.5601c5.4785 3.9023 6.5391 5.3435 6.611 8.9832 0.046982 2.3842 0.4621 5.5891 0.92247 7.1219 1.1375 3.7877-0.7114 3.5048-7.4933-1.1463-5.0717-3.4784-5.8404-4.6862-6.6464-10.442-0.5012-3.5798-0.68806-7.1063-0.41519-7.8367 0.27283-0.73047 3.4325 0.76349 7.0215 3.32zm28.291 2.2477c-0.53337 3.3639-1.242 6.9522-1.5748 7.974-0.6303 1.9356-12.802 9.3643-13.834 8.4433-0.32436-0.28946-0.070969-3.4545 0.563-7.0334 1.1728-6.6202 1.7629-7.2802 11.712-13.1l4.1037-2.4004-0.9698 6.1162zm-29.961 18.451l6.2461 2.9334-6.7083 2.5843c-3.6895 1.4213-7.5767 2.5843-8.6381 2.5843-2.3933 0-14.496-5.1723-14.496-6.1952 0-0.96091 12.53-4.984 15.268-4.9024 1.1451 0.034241 4.8928 1.3823 8.3283 2.9957zm40.947 1.125l6.9402 2.9002-5.4712 2.0743c-9.1469 3.468-10.99 3.4945-18.789 0.27051l-7.5095-3.1046 6.6305-2.5361c8.3358-3.1885 9.6918-3.159 18.199 0.39569zm-60.551 8.4079c8.2647 4.689 8.7446 5.2167 7.9534 8.7467-0.46309 2.0662-0.84197 5.9165-0.84197 8.5563 0 3.9738-0.47762 4.7996-2.7761 4.7996-2.4622 0-2.7761-0.82578-2.7761-7.3025v-7.3026l-6.9727-3.9927c-6.0034-3.4375-6.7334-4.2734-5.2509-6.0124 0.94701-1.1109 1.755-2.1238 1.7954-2.2511 0.040512-0.12723 4.0316 2.0142 8.869 4.7588zm72.305-0.2658c1.3003 2.168 0.80898 2.784-3.9488 4.9499-8.3991 3.8236-9.8876 5.7132-9.8876 12.552 0 5.3224-0.36346 6.1045-2.8369 6.1045-2.6271 0-2.8068-0.64471-2.4291-8.7195l0.4078-8.7195 8.6047-4.3221c8.3571-4.1977 8.6474-4.2508 10.09-1.8458zm-44.389 0.3736c-0.048553 8.8889-1.7014 12.09-8.5626 16.584-3.7516 2.4574-7.0321 4.262-7.29 4.0102-0.25794-0.25183 0.14627-3.8106 0.89829-7.9085 1.2978-7.0721 1.7128-7.6546 8.1684-11.466 6.6531-3.9286 6.8009-3.9551 6.7859-1.2196zm13.613 3.106c4.9323 4.0714 5.7002 5.4474 6.221 11.147 0.70569 7.7237-0.35072 8.0271-7.8929 2.2665-4.8679-3.7179-5.4908-4.8569-6.0711-11.101-0.38818-4.1771-0.094528-6.9578 0.73479-6.9578 0.75978 0 3.9135 2.0901 7.0082 4.6447zm-48.646 2.3417c5.7725 3.1058 5.8992 3.3176 5.8992 9.8604 0 6.3066-0.19716 6.6866-3.4701 6.6866-3.1874 0-3.4701-0.45413-3.4701-5.5737 0-3.0656-0.46846-5.5861-1.041-5.6013-2.8765-0.07608-7.3558-4.5648-6.5124-6.526 1.1617-2.7014 1.5176-2.6537 8.5945 1.154zm83.597 1.6301c1.3342 2.2247 0.92561 2.7815-3.3895 4.6176-4.3608 1.8556-4.9066 2.6179-4.9066 6.8518 0 3.1828-0.72197 5.0111-2.1754 5.5088-3.8484 1.3178-5.1994-1.4053-3.8843-7.8289 1.0796-5.273 1.8897-6.2895 7.0294-8.8195 5.806-2.8579 5.81-2.8582 7.3264-0.3298zm-90.499 4.459c4.2156 2.6349 4.4466 10.458 0.30881 10.458-1.957 0-2.7761-0.82578-2.7761-2.7985 0-1.5393-1.2967-3.5213-2.8816-4.4045-2.3151-1.2901-2.5545-1.9575-1.218-3.3944 2.0933-2.2508 2.7653-2.2366 6.5669 0.13944zm95.332 2.7167c0.62466 1.4516-0.013992 2.7288-1.9336 3.8669-1.5765 0.9346-2.8663 2.7461-2.8663 4.0254 0 1.5004-0.98546 2.3262-2.7761 2.3262-2.2434 0-2.7761-0.82574-2.7761-4.3034 0-3.5126 0.75246-4.6505 4.0952-6.193 5.1023-2.3544 5.1245-2.3535 6.2568 0.27786zm-42.026 7.4984c6.6502 3.8612 7.6676 4.924 6.4978 6.7877-1.289 2.0537-1.9183 1.9385-8.9122-1.6322l-7.5251-3.8419-7.0502 3.4241c-5.9211 2.8757-7.2537 3.137-8.3207 1.6321-0.69875-0.9855-1.2726-2.0706-1.2752-2.4112-0.006226-0.81009 16.079-8.6904 17.562-8.6034 0.6266 0.036743 4.6874 2.1268 9.0241 4.6448zm-62.826-2.9758c3.8523 4.142-3.0157 10.271-7.6575 6.8331-1.1471-0.84949-1.8979-2.9857-1.6684-4.7471 0.3128-2.4013 1.3151-3.2956 4.0061-3.5748 1.9738-0.2048 4.3678 0.46527 5.3198 1.4888zm114.49 2.359c3.5391 2.3094 2.4494 7.5546-1.678 8.0767-6.1394 0.77664-9.2363-3.9941-5.0296-7.7479 2.6508-2.3654 3.5209-2.408 6.7076-0.3288zm-54.361 8.6557c5.6833 2.9909 5.7737 3.1272 3.862 5.8258-1.1484 1.621-1.9389 1.555-6.2629-0.52292-4.6731-2.2457-5.2153-2.2646-9.7395-0.33945-4.5235 1.9248-4.8662 1.913-6.1406-0.21188-1.1212-1.8694-0.4478-2.7028 3.9768-4.9219 6.5424-3.2811 7.7734-3.2664 14.304 0.17032zm-3.4184 7.7567c3.2828 2.0518 4.0236 4.8395 1.6361 6.1563-0.79689 0.43939-2.3185 0.15497-3.3814-0.63217-1.4075-1.0424-2.695-1.0671-4.7391-0.090881-2.296 1.0965-3.0738 0.89459-4.2762-1.1101-1.2508-2.0855-0.85644-2.7333 2.6489-4.3509 5.0006-2.3075 4.372-2.3097 8.1116 0.027679zm-0.4843 12.404c2.6508 2.3654 2.6986 3.1418 0.36839 5.9855-2.5879 3.1581-8.4659 2.1856-9.051-1.4973-0.8703-5.4784 4.476-8.2419 8.6826-4.4882z"/>
  <path d="m459.81 407.09c2.0844 3.1926 0.91989 7.2226-2.5554 8.8434-2.8926 1.3491-2.8492 1.3976 0.84021 0.93881 3.304-0.41089 3.8269-0.08783 3.4701 2.1438-0.3071 1.92-1.7284 2.8339-5.2783 3.3935-2.98 0.46979-3.6508 0.82895-1.735 0.92896 3.8328 0.20007 4.0509 2.11 0.43823 3.8352-5.712 2.7279-12.584-0.17615-12.584-5.318 0-2.462 1.4806-2.6454 4.2127-0.52173 1.0956 0.8515 0.53686 0.062836-1.2415-1.7525-2.2857-2.3335-2.953-4.0888-2.2771-5.9894l0.9562-2.6885 3.4613 2.8928 3.4613 2.8928-1.6532-3.2495c-1.245-2.4472-1.2632-3.8998-0.073517-5.8834 1.9618-3.2711 8.5369-3.5616 10.558-0.46637zm-35.022 6.2387c1.3636 1.3445 1.9615 3.4107 1.5234 5.2641-0.69919 2.9579-0.65396 2.947 1.485-0.35535 1.2134-1.8734 2.7439-3.4061 3.4013-3.4061 2.0356 0 2.9414 3.7768 1.4872 6.2013-2.0515 3.4206-1.6752 4.5352 0.59988 1.7768 1.889-2.2904 2.0291-2.2978 2.9585-0.15781 2.3431 5.3954-6.7535 12.804-11.45 9.3256-1.7081-1.265-1.5278-1.7238 1.2099-3.0793 3.9022-1.932 2.6779-2.1427-2.4137-0.41525-2.6492 0.89871-4.2834 0.8548-5.6425-0.15176-2.7135-2.0094-2.3696-3.5907 0.78101-3.5907 1.4817 0 3.1458-0.65219 3.6978-1.4491 0.69098-0.99762 0.2215-1.1813-1.5069-0.58948-3.0142 1.0322-7.6612-2.3019-7.6612-5.4966 0-1.2082 0.98157-3.0726 2.1812-4.1432 2.8809-2.5706 6.5787-2.4651 9.3495 0.26685zm18.7 14.217c1.8972 1.8021 2.5425 3.4004 1.8035 4.4674-0.88348 1.2756-1.3924 1.3123-2.1917 0.15832-0.79849-1.1529-1.3106-1.114-2.1978 0.16699-2.0956 3.0257-4.3582-0.51736-2.7463-4.3004 1.7005-3.9912 1.6532-3.9868 5.3323-0.49222zm27.746 2.2962c-0.61081 3.7132-0.54929 3.7679 1.5775 1.403 5.1818-5.7615 13.765-2.9438 11.843 3.888-1.0182 3.6198-6.7284 5.6969-9.3154 3.3884-2.6259-2.3432-4.3729-1.5512-1.9179 0.86948 2.8792 2.839 2.874 3.4654-0.037262 4.4623-1.4981 0.51294-3.363-0.22556-5.2052-2.0611-1.5789-1.5733-2.4022-2.3192-1.8296-1.6578 1.7699 2.0449 1.1605 3.1845-1.7031 3.1845-3.895 0-7.3199-5.145-6.1629-9.2584 1.0886-3.87 4.4775-5.4959 6.2498-2.9985 0.93259 1.3143 1.2318 1.0924 1.248-0.92554 0.017975-2.2506 2.3806-4.158 5.1504-4.158 0.40598 0 0.45215 1.7386 0.10263 3.8636zm-14.066 1.7205c-0.48486 1.1275-0.88162 2.8406-0.88162 3.8067s-0.93695 1.7566-2.0821 1.7566c-1.1451 0-2.082-0.83606-2.082-1.8579s-0.4975-1.8579-1.1055-1.8579c-1.3904 0-1.3376 5.6656 0.064514 6.916 1.7136 1.5285 1.1823 2.9929-1.0858 2.9929-1.1697 0-2.6284 1.2101-3.2415 2.689-0.73868 1.7818-1.4537 2.1997-2.1192 1.2386-0.55255-0.79773-2.5096-1.4504-4.3492-1.4504-2.3553 0-3.1156-0.53259-2.5704-1.8005 0.42587-0.99023-0.29517-3.0804-1.6024-4.6448-1.3698-1.6394-2.0474-1.9695-1.5995-0.7792 1.2053 3.2025-2.8665 3.7479-5.2558 0.70392-2.8836-3.6736-2.709-4.2265 1.6427-5.2011 2.7889-0.62454 4.2481-0.25851 5.638 1.414 1.8065 2.174 1.9487 2.1684 3.8768-0.15393 1.5532-1.8708 2.3733-2.0788 3.6618-0.92899 2.454 2.1898 3.6349 1.8168 4.1318-1.3052 0.34436-2.1633 1.4949-2.8765 5.1424-3.1874 3.8962-0.33221 4.5481-0.050415 3.8171 1.6496zm-29.406 8.7397c1.599 2.1776 2.0417 4.3575 1.4077 6.9328-0.77429 3.1459-1.4659 3.6641-4.2547 3.1884-2.5501-0.43494-3.3301-0.028015-3.3301 1.7374 0 1.5249-0.99863 2.3054-2.9496 2.3054-2.5477 0-2.8342-0.51468-2.103-3.7774 0.52508-2.3428 0.32742-3.491-0.52051-3.0235-0.75186 0.41473-1.3672 1.4968-1.3672 2.4045 0 2.9537-7.0778 3.5854-10.087 0.90015-5.7344-5.1171 3.0097-12.729 9.1857-7.9961 2.8694 2.1989 2.8704 2.1969 0.49985-1.1598-3.0026-4.2519-2.9746-4.6883 0.30078-4.6883 1.4713 0 3.9699 1.4686 5.5522 3.2635 1.5822 1.795 2.8768 2.664 2.8768 1.931 0-0.73285-0.63483-1.6826-1.4106-2.1106-0.77591-0.42786-1.0514-1.2967-0.61212-1.9309 1.4489-2.092 4.4432-1.2027 6.8119 2.0234zm31.685 2.4042c2.4269 2.9766 2.41 3.0383-1.0379 3.8106-4.5178 1.0118-9.1675-0.37091-6.3929-1.9011 1.0441-0.5759 1.5147-1.9393 1.0457-3.0298-1.3745-3.1964 3.5735-2.3282 6.3851 1.1204zm-23.441 2.3805c-0.54764 1.2734-0.065369 1.9478 1.3929 1.9478 4.0583 0 2.3133 3.3914-2.1552 4.1889-2.4122 0.43054-4.5777 0.61148-4.8123 0.40225-1.2487-1.1144 2.1035-7.7461 4.0879-8.0873 1.6244-0.27927 2.0721 0.18701 1.4868 1.5483zm14.1 3.5136c0.40744 0.94757 0.071564 3.2935-0.74634 5.2132l-1.4871 3.4904-3.4543-2.8958c-3.6167-3.0318-3.8409-5.4928-0.5054-5.5484 1.0793-0.017975 2.7478-0.47138 3.7074-1.0075 1.0418-0.58197 2.0433-0.28055 2.4857 0.74811zm13.821 0.9219c0.47583 0.68695-0.58035 1.7556-2.3471 2.3748-2.6079 0.91394-2.0652 1.0867 2.8847 0.91849 7.1145-0.24176 9.0688 2.0427 3.3418 3.9062l-3.8864 1.2647 3.7683 0.0977c4.906 0.12729 7.5422 4.162 5.4266 8.3054-3.037 5.9478-13.377 1.9861-11.842-4.5375 0.49808-2.1176 0.044891-1.7495-1.4815 1.2036-1.9972 3.8639-2.3988 4.0761-4.3758 2.312-1.7517-1.5631-1.8617-2.4676-0.56305-4.6327 0.88745-1.4797 1.31-3.3562 0.93906-4.17-0.37091-0.81375-0.72385-0.45773-0.784 0.79114-0.06073 1.2581-0.88339 2.0264-1.8446 1.7228-2.4759-0.78223-1.5698-7.3976 1.2667-9.2483 2.8658-1.8699 8.2943-2.0462 9.4978-0.30838zm-21.411 5.6684c3.2251 3.0634 2.7833 7.9078-0.53967 5.9177-0.9812-0.58768-0.66153-0.14304 0.71045 0.98801 2.5499 2.102 3.2337 4.922 1.5565 6.4186-0.51596 0.46039-2.3898-0.37991-4.1642-1.8674-3.1055-2.6034-4.7525-1.653-1.7612 1.0163 2.4963 2.2276 0.036133 7.5647-3.8927 8.4446-5.2966 1.1862-9.2916-2.6971-7.3829-7.1767 0.77753-1.825 2.3293-3.3181 3.4482-3.3181 1.119 0 2.4147-0.54898 2.8795-1.22 0.52402-0.75659-0.76279-0.93301-3.3882-0.46448-3.6563 0.65259-4.2331 0.39688-4.2331-1.8766 0-1.7245 0.87555-2.632 2.5393-2.632 1.7214 0 2.5038-0.87427 2.429-2.7146-0.084747-2.0877 0.91678-2.9071 4.3361-3.5476 3.5838-0.6713 5.0316-0.27701 7.4629 2.0323z"/>
  <path d="m192.56 470.69c0 1.295 0.62462 2.3546 1.388 2.3546 2.5593 0 1.4211 2.7014-1.4173 3.3637-2.1163 0.49387-2.4384 1.0492-1.3114 2.2609 1.1344 1.2197 0.58164 2.003-2.2974 3.2548-2.0851 0.90677-4.0455 2.3453-4.3564 3.1969-0.79188 2.1693 3.1292 1.9367 5.2184-0.3096 2.4524-2.6369 6.095-2.4296 4.9296 0.28049-0.69063 1.606-0.072876 1.4286 2.4811-0.71246 2.3214-1.9461 3.7116-2.4021 4.3802-1.4367 0.53871 0.7778 0.61432 1.74 0.16802 2.1382-0.4463 0.39832 0.27194 1.476 1.596 2.3948 2.2705 1.5756 2.2542 1.7764-0.28686 3.5286-1.4819 1.0219-2.1377 1.8579-1.4574 1.8579s0.50214 0.65573-0.39594 1.4571c-1.2518 1.1169-2.3441 0.90024-4.6804-0.92892-1.6761-1.3124-2.6176-1.7279-2.0922-0.9234 1.5705 2.4048-1.8497 3.2697-4.4919 1.1359-2.8211-2.2782-5.7024-2.5981-5.7024-0.63312 0 0.74048 1.8726 1.977 4.1614 2.7479 3.0688 1.0337 3.9554 1.981 3.3765 3.6082-0.52487 1.4758-0.064194 2.2066 1.3908 2.2066 1.1966 0 2.1756 0.83609 2.1756 1.8579s-0.66147 1.8579-1.47 1.8579c-0.80846 0-1.1277 0.49417-0.70932 1.0983 0.41838 0.60403-0.16936 1.787-1.3061 2.6289-1.6414 1.2155-2.4953 1.2132-4.1488-0.011322-1.5516-1.1491-2.0821-1.169-2.0821-0.078552 0 0.80478-0.68346 1.0864-1.5188 0.62573-0.8353-0.46066-1.2506-2.0894-0.92276-3.6195 0.44542-2.0794 0.035706-2.6512-1.6223-2.2643-1.6456 0.38394-2.2136-0.37915-2.2003-2.9562 0.009872-1.9106-0.60666-3.4739-1.3701-3.4739-0.76343 0-1.2295 1.5328-1.0358 3.4062 0.24828 2.4002-0.28998 3.4062-1.8223 3.4062-1.4362 0-2.0272 0.9072-1.7403 2.6717 0.23886 1.4695-0.34654 2.9094-1.3008 3.1999-0.95433 0.29038-1.7351-0.14414-1.7351-0.96555 0-1.1641-0.44591-1.1633-2.0212 0.003418-2.6261 1.9448-5.3497 0.40976-4.4882-2.5297 0.36992-1.2623 0.033936-2.1748-0.74661-2.0278-0.78056 0.14703-1.7055-0.42938-2.0554-1.2809-0.34988-0.85156 0.3528-1.5483 1.5616-1.5483s2.2017-0.97534 2.2065-2.1676c0.004837-1.1921 2.0348-3.2405 4.5112-4.5522 3.6781-1.9481 4.0388-2.4781 1.97-2.8954-1.3928-0.28088-3.6958 0.42874-5.1177 1.577-2.744 2.216-6.2378 1.4401-4.6264-1.0273 0.52541-0.80447-0.29439-0.48727-1.8217 0.70493-3.1794 2.4817-4.6404 2.7463-4.6404 0.84052 0-0.72989-0.94267-2.1683-2.0948-3.1964-2.3155-2.0662-1.5934-4.1468 1.4392-4.1468 1.0761 0 1.6352-0.74728 1.2425-1.6605-0.90617-2.107 7.0659-1.9869 11.467 0.17279 4.1106 2.017 6.068 1.8708 5.0997-0.38083-0.44194-1.0278-2.348-2.2145-4.2355-2.6373-2.4296-0.54416-3.2428-1.4143-2.7842-2.979 0.4195-1.4315-0.27367-2.4254-1.9671-2.8206-2.6985-0.62964-3.6925-3.3193-1.2268-3.3193 0.76346 0 1.388-0.85358 1.388-1.8968 0-2.5879 4.1552-3.826 5.671-1.6899 0.87683 1.2357 1.2327 1.2872 1.2479 0.18048 0.011703-0.85153 0.64587-1.5482 1.4093-1.5482 0.76344 0 1.388 1.376 1.388 3.0576 0 2.339 0.54109 2.8724 2.3022 2.2693 1.9222-0.65823 2.1663-0.18219 1.479 2.884-0.99153 4.4241 1.0636 8.4998 2.5468 5.0508 0.50879-1.1833 0.59091-3.2919 0.18242-4.6858-0.45238-1.5436 0.029053-2.7989 1.2316-3.2105 1.0859-0.37183 1.9743-1.6207 1.9743-2.7752 0-1.5501 1.2712-2.1314 4.8582-2.2221 3.8967-0.098572 4.8582 0.34299 4.8582 2.2317z"/>
  <path d="m315.48 384.44c2.5821 4.2785 2.5812 4.2874-0.74191 7.4438l-3.3271 3.1602-2.6027-3.6682c-2.7134-3.8241-2.0962-6.6407 2.143-9.7801 1.5634-1.1578 2.4492-0.60153 4.5288 2.8443zm-27.795 5.2243c5.4898 5.6742 6.7297 7.7826 6.3735 10.838-0.64105 5.4974-1.1552 5.7812-6.4162 3.5425-4.2019-1.788-4.9294-2.8286-6.2483-8.9375-0.82098-3.8026-1.7923-8.1679-2.1585-9.7007-1.054-4.4114 1.1235-3.3141 8.4495 4.2579zm57.564-2.4047c0 0.58874-1.447 4.898-3.2154 9.5762-2.9302 7.7514-3.6687 8.6457-8.3282 10.085l-5.1129 1.5795 7e-4 -5.1992c6.41e-4 -4.6706 0.67105-5.7105 6.5932-10.228 7.8098-5.9576 10.063-7.2591 10.063-5.8135zm-38.654 7.2882l5.0692 3.1091 5.8763-2.6751c4.7539-2.1642 6.1016-2.3582 7.055-1.016 0.64816 0.91251 1.1881 2.0854 1.1998 2.6063 0.019257 0.85998-7.346 5.356-10.169 6.2077-0.64246 0.19373-1.3761 3.7769-1.6303 7.9625-0.25424 4.1857-1.2162 8.8674-2.1377 10.404-1.6396 2.7337-1.7191 2.7423-3.6994 0.40292-1.519-1.7945-1.8215-4.4358-1.2124-10.591l0.8115-8.2001-5.5451-3.2745c-5.955-3.5167-6.4658-4.3997-3.8795-6.7075 2.1541-1.9222 2.2847-1.8942 8.2617 1.7717zm-5.314 7.4645c0.50153 0.44754 0.52954 3.7169 0.062164 7.2652-0.55347 4.2024-0.30692 6.7509 0.70746 7.3103 1.9291 1.0639 2.0762 8.1443 0.16919 8.1443-2.1503 0-6.9402-4.7321-6.9402-6.8564 0-1.0771-2.7352-2.9481-6.3075-4.3144-5.7266-2.1906-6.1642-2.6515-4.7517-5.0066 1.0557-1.7601 2.3023-2.3196 3.8783-1.7409 4.7877 1.7583 6.4842 1.2172 6.926-2.2092 0.41922-3.251 3.9012-4.6938 6.2562-2.5924zm25.053 2.3186c0.47888 1.1136 0.87067 3.08 0.87067 4.3699 0 2.0102 0.51254 2.1714 3.5867 1.1284 4.2046-1.4265 6.1296-0.67471 6.1296 2.3938 0 1.5071-1.7828 2.6847-5.6161 3.7095-3.5156 0.93994-6.1685 2.5835-7.0933 4.3946-0.81247 1.5912-2.9699 3.5-4.7942 4.2418-3.0185 1.2271-3.3171 1.0684-3.3171-1.7649 0-1.7125 0.99304-4.4659 2.2067-6.1187 1.4089-1.919 2.0362-4.9254 1.7351-8.317-0.41119-4.6305-0.09375-5.3599 2.4747-5.687 1.7379-0.22125 3.3036 0.45541 3.8172 1.6496zm-45.484 4.2046l-0.9066 6.0982 7.5739 4.1203c6.3756 3.4683 10.538 7.6038 10.538 10.47 0 0.90472-8.8535-0.87622-9.7163-1.9544-0.38171-0.47714-3.1052-2.3116-6.0523-4.077l-5.3582-3.2097-6.3268 2.4201c-5.0196 1.92-6.5609 2.0907-7.4599 0.82638-2.1131-2.9718-1.1883-4.3099 4.3105-6.2373 5.1551-1.807 5.5427-2.3041 6.425-8.2388 0.84552-5.6878 1.284-6.3159 4.409-6.3159 3.3543 0 3.4399 0.20343 2.5635 6.0983zm-12.133-1.64c2.6838 5.2561 2.0171 6.6892-3.1119 6.6892-3.9132 0-4.9784-0.62192-6.4331-3.7555-2.0198-4.3512-2.0354-4.3284 3.6459-5.2913 3.6612-0.62054 4.5624-0.26034 5.8991 2.3576zm78.5 5.3373c-0.90088 6.0599-0.88516 6.0909 4.8103 9.4542 6.2454 3.6881 6.6952 4.4925 3.7365 6.6836-1.566 1.1597-3.1487 0.80499-7.6025-1.7039l-5.6248-3.1685-6.278 2.7217c-3.4528 1.497-6.2779 3.168-6.2779 3.7134 0 0.54556-2.1861 0.99185-4.8581 0.99185s-4.8442-0.41806-4.8273-0.92896c0.076263-2.2955 5.4283-6.246 12.114-8.9421 6.0424-2.4365 7.2905-3.4841 7.3062-6.1328 0.036652-6.1924 1.5198-8.7681 5.0488-8.7681 3.2163 0 3.3184 0.25311 2.4523 6.0797zm11.566-2.5952c4.9553 0.42639 5.2841 1.078 2.9003 5.7466-1.1277 2.2086-2.6888 3.1492-5.2051 3.1358-6.0051-0.031616-7.0903-1.3703-4.5033-5.555 1.9304-3.1228 3.0167-3.6536 6.8081-3.3275zm-80.212 17.684c2.6431 1.9816 6.4276 3.603 8.4099 3.603 1.9824 0 4.8167 0.82544 6.2986 1.8344 2.3322 1.5877 2.4145 2.0015 0.61237 3.0775-1.1451 0.68378-4.2682 1.2554-6.9402 1.2704-2.672 0.014862-6.732 1.1344-9.0223 2.488-5.1129 3.0216-7.0664 3.107-8.2474 0.36054-0.6037-1.4038 0.15839-2.8359 2.2627-4.2524l3.1728-2.1356-3.1267-2.9699c-2.9745-2.8253-3.0074-3.0652-0.67612-4.9244 2.2565-1.7996 2.8312-1.6691 7.2564 1.6485zm35.795 1.9611c2.1969 1.3675 3.1231 3.1901 3.1231 6.1462 0 3.3917-0.84909 4.6629-4.4022 6.5912-4.4718 2.4267-5.7494 2.2569-11.409-1.517-3.7884-2.5258-2.0999-9.9092 2.7135-11.866 4.5178-1.8368 6.1569-1.7307 9.975 0.6459zm-45.39 1.0878c2.8203 2.6788 3.0163 3.3473 1.283 4.3766-6.2596 3.7174-7.0239 3.7755-15.653 1.1919-11.658-3.4904-13.584-4.6472-9.2228-5.5386 19.374-3.9595 19.456-3.9596 23.593-0.029846zm78.631 0.1277c0.56616 1.3165-0.26807 2.8817-2.3296 4.3714l-3.2114 2.3204 2.9767 2.8274c2.6477 2.5149 2.7577 3.0929 0.995 5.2279-1.9198 2.3253-2.128 2.2744-6.6561-1.6251-3.1664-2.7269-6.0225-4.0255-8.854-4.0255-2.2989 0-5.3487-0.76273-6.7772-1.6949-2.5155-1.6413-2.5048-1.7392 0.3374-3.0965 1.6142-0.77084 5.0061-1.414 7.5374-1.4292 2.5312-0.015137 6.1639-1.1175 8.0725-2.4497 4.2697-2.9803 6.7534-3.1142 7.9093-0.42642zm17.634 4.836c5.2694 1.6426 9.8318 3.2106 10.139 3.4844 1.0894 0.97211-20.453 4.6479-23.004 3.9253-1.4273-0.40424-3.6498-1.7751-4.939-3.0462-2.2229-2.1917-2.1316-2.446 1.7663-4.9227 4.9199-3.1261 4.127-3.1538 16.038 0.55933zm-68.573 4.9614c0 2.722-3.9817 5.8362-11.114 8.6922l-8.3188 3.3313v6.0239c0 5.5998-0.24435 6.0239-3.4701 6.0239-3.2595 0-3.4708-0.39471-3.4809-6.5026-0.010315-6.2875-0.19476-6.5965-5.5725-9.337-4.8119-2.4522-5.3654-3.1619-4.1046-5.264 1.8261-3.0448 1.7628-3.0493 8.7588 0.60925l5.8113 3.039 7.497-3.6583c6.7215-3.28 13.994-4.817 13.994-2.9576zm28.464 1.5902c1.5316 0.44299 5.7334 2.635 9.3372 4.8708l6.5525 4.0652 5.529-2.517c6.764-3.0792 6.5933-3.0784 8.4133-0.043854 1.3133 2.1897 0.76199 2.7859-4.8093 5.2013-6.1664 2.6733-6.2926 2.8473-6.2926 8.6742 0 5.5169-0.25055 5.9463-3.4701 5.9463-3.2343 0-3.4701-0.41687-3.4701-6.1336 0-5.9373-0.21085-6.2596-6.5932-10.081-7.2794-4.3585-10.063-6.9627-10.063-9.4133 0-1.7444 0.57187-1.8112 4.8668-0.56885zm-22.911 5.1841c0 1.3864-1.093 4.0151-2.429 5.8416-1.409 1.9262-2.429 5.6788-2.429 8.9362 0 4.8806-0.40881 5.6675-3.1232 6.0114-2.7309 0.34613-3.123-0.15131-3.123-3.961 0-4.3365-0.020111-4.3506-4.3132-3.0151-3.4052 1.0593-4.5695 0.98056-5.5309-0.37402-2.1916-3.0879-1.3307-4.6017 3.1117-5.4724 2.4045-0.47128 6.7522-3.0237 9.6613-5.6721 5.9185-5.388 8.1754-6.0214 8.1754-2.2946zm14.951-0.4532c0.97034 0.34848 2.7009 2.2497 3.8457 4.2252s4.567 4.7233 7.605 6.1064c5.833 2.6554 6.2421 3.2486 4.2137 6.1095-1.0335 1.4576-1.9381 1.5149-4.9022 0.30966-4.7686-1.9388-4.5352-2.0324-5.5862 2.238-0.61676 2.5056-1.7562 3.7158-3.4984 3.7158-3.6212 0-4.1438-1.2887-2.7535-6.7895 0.88577-3.5046 0.67612-5.7194-0.7792-8.2307-2.1222-3.662-2.6772-8.5777-0.95004-8.4155 0.57248 0.053741 1.8349 0.38284 2.8052 0.73117zm-7.1392 3.1965c0.58215 1.5328 0.87317 6.0837 0.64673 10.113-0.3988 7.0963-0.25195 7.446 4.6808 11.147 3.663 2.7486 4.8297 4.4297 4.1565 5.9887-1.2663 2.9324-2.7625 2.7378-8.3876-1.0908l-4.7873-3.2584-6.2644 2.9487c-5.4209 2.5516-6.443 2.6985-7.5912 1.0908-2.0588-2.8826-1.7828-3.2642 4.8768-6.7468l6.2461-3.2664 0.0442-7.689c0.056335-9.8125 3.9949-15.516 6.3792-9.2374zm-44.117 3.2608c1.5473 0.87503 1.5055 1.6773-0.24475 4.6974-1.8522 3.1963-2.7179 3.5789-7.0711 3.1253-5.7084-0.5947-5.6307-0.45078-2.8427-5.2616 2.1498-3.7098 6.2844-4.7522 10.159-2.5612zm92.471 7.8867c1.0438 2.2139 1.7944 4.0847 1.6681 4.1572-0.12634 0.072479-2.2524 0.47525-4.7248 0.89517-3.9596 0.67236-4.745 0.33206-6.5932-2.8572-3.0669-5.2923-2.645-6.2207 2.8271-6.2207 4.2419 0 5.1884 0.55844 6.8229 4.0255zm-69.189 5.6041c0.91547 4.3543 0.62976 4.7738-7.9077 11.609-4.8716 3.9002-9.0901 6.8838-9.3743 6.6301-0.70123-0.62576 5.3652-16.973 6.974-18.793 0.70608-0.79871 3.1006-2.0173 5.3211-2.7081 3.9003-1.2132 4.0694-1.1026 4.987 3.2617zm41.506 0.0923c3.678 2.0015 4.4012 3.3701 5.8992 11.166 0.93909 4.8866 1.7074 9.492 1.7074 10.234 0 1.3337-12.09-9.978-14.36-13.436-1.2812-1.9512 0.00238-10.257 1.584-10.249 0.53796 0.002533 2.8644 1.0311 5.1699 2.2857zm-22.396 11.91c2.9586 4.0292 2.8312 5.5171-0.76508 8.933l-3.0067 2.8559-2.5779-3.7827c-2.5339-3.718-2.5283-3.8451 0.32513-7.4209 1.5967-2.001 3.101-3.6382 3.343-3.6382 0.24191 0 1.4486 1.3738 2.6816 3.0529z"/>
  <path d="m290.09 519.61c0.45636 0.40723 0.45425 1.6134-0.004578 2.6804-0.55051 1.2802-0.28186 1.6353 0.7897 1.0444 0.96265-0.53088 1.6239-0.14331 1.6239 0.9519 0 1.016-1.3318 2.2248-2.9595 2.6857-2.3328 0.66071-2.5532 1.0717-1.041 1.9414 1.6127 0.92731 1.5866 1.2975-0.1636 2.3229-1.1451 0.67084-2.796 1.2282-3.6686 1.2386-0.87262 0.010376-1.9461 0.85498-2.3856 1.8768-1.0724 2.4939 3.746 2.4818 6.0684-0.015259 1.3251-1.4247 2.1965-1.5366 3.64-0.46759 1.424 1.0545 2.4179 1.0205 3.98-0.13641 1.1452-0.84802 2.0821-1.195 2.0821-0.771 0 2.1207 0.35315 2.7068 2.1807 3.6193 2.5655 1.2812 2.5019 2.7258-0.28732 6.5244-2.0877 2.8433-2.4656 2.9352-4.6866 1.1415-2.2032-1.7792-2.4947-1.7678-3.3104 0.12897-0.8288 1.9273-1.0786 1.9313-3.4039 0.053467-1.3801-1.1146-3.6297-2.0264-4.9991-2.0264-2.0558 0-2.1886 0.32391-0.76181 1.8578 0.95041 1.0219 2.5515 1.8579 3.5581 1.8579 2.6542 0 4.0383 2.5885 1.9886 3.7189-1.2525 0.6908-0.90884 1.2028 1.2102 1.8029 2.8939 0.81958 4.1704 3.1484 1.7257 3.1484-0.67862 0-1.1471 0.97424-1.041 2.1651 0.14926 1.6769-1.0179 2.2254-5.1758 2.4321-5.322 0.26483-5.3619 0.2326-4.6051-3.7133 0.41992-2.1893 0.44144-3.2838 0.047729-2.4322-1.4006 3.0295-3.2605 1.4814-3.2605-2.7138 0-2.3441-0.62466-4.6065-1.3881-5.0275-1.5097-0.83258-1.8294 0.54138-1.4099 6.0588 0.22125 2.9098-0.17062 3.4298-2.0894 2.7729-1.9472-0.66681-2.2108-0.27179-1.5014 2.2501 0.80875 2.8753 0.54736 3.0434-4.3568 2.8009-3.5835-0.17718-5.217-0.8396-5.217-2.1159 0-1.0218-0.92816-2.3773-2.0626-3.0118-1.6602-0.92896-1.254-1.4618 2.082-2.731 2.2796-0.86737 3.364-1.6022 2.4096-1.6328-3.0082-0.096924-1.8823-2.5445 1.7351-3.7718 1.9085-0.6474 3.4701-1.7485 3.4701-2.4465 0-1.9064-3.5852-1.5263-5.5522 0.58856-2.2763 2.4476-4.1641 2.3607-4.1641-0.1919 0-1.8932-0.19763-1.8903-2.5874 0.03949-2.4496 1.9783-2.716 1.9145-5.0016-1.1983-2.3122-3.1491-1.9236-5.5982 1.6354-10.305 0.21143-0.27966 1.6375 0.50336 3.1691 1.7402 2.5012 2.0199 2.7846 2.0401 2.7846 0.19879 0-2.5525 1.8878-2.6396 4.1641-0.19202 0.95044 1.0219 3.0569 1.8394 4.6812 1.8168 2.9478-0.041077 2.9474-0.04541-0.18854-2.3795-1.728-1.2861-3.9141-2.6185-4.8582-2.9611-1.2906-0.46826-1.2179-0.93225 0.29321-1.8705 1.6139-1.0021 1.2603-1.4156-1.7955-2.1-3.4202-0.76593-4.615-4.0212-1.245-3.392 0.76901 0.14362 1.3155-0.69141 1.2145-1.8554-0.13962-1.6091 1.0672-2.179 5.0333-2.377 4.9046-0.24487 5.1656-0.077148 4.3568 2.7984-0.7081 2.5175-0.44424 2.9164 1.4907 2.2538 1.9638-0.67242 2.275-0.13397 1.8894 3.2694-0.27991 2.4713 0.2211 4.2852 1.2736 4.6102 1.1768 0.36328 1.735-0.89215 1.735-3.9028 0-4.3709 1.7866-5.9178 3.3381-2.89 0.43631 0.85156 0.43869-0.26331 0.005371-2.4772-0.76205-3.8925-0.63159-4.0255 3.9491-4.0255 2.6054 0 5.1105 0.33319 5.5669 0.74042z"/>
 </g>
</svg>
